<svg xmlns="http://www.w3.org/2000/svg" viewBox="0 0 1225.95 989.87">
  <defs>
    <style>.cls-1{fill:#fcd6db;}.cls-2{fill:#121212;}.cls-3{fill:#fff;}.cls-4{fill:#fac3ca;}.cls-5{fill:#133346;}</style>
  </defs>
  <g id="Layer_2" data-name="Layer 2">
    <g id="Illustration">
      <g id="Wave_background" data-name="Wave background">
        <path class="cls-1" d="M1120.13,938.61s-27.79,14-53.44-52.06-52.37-104.12-148.57-36c0,0-62,32-120.77-74.08C749.09,689.32,624.5,658.87,475,839c-16.38-11.59-34.21-30.94-51.74-62.6C364.47,670.3,192.39,648.28,0,988.67H1226S1190.68,880.54,1120.13,938.61Z"></path>
      </g>
      <g id="Flight_information" data-name="Flight information">
        <path class="cls-2" d="M1053.29,414.71H280.8V140.88h772.49ZM284,411.5h766.08V144.09H284Z"></path>
        <path class="cls-2" d="M1022.27,144.09H312.36V85.42h709.91Zm-706.71-3.21h703.5V88.62H315.56Z"></path>
        <path class="cls-2" d="M361.86,230.63h-49.5V184.39h49.5Zm-46.3-3.21h43.09V187.6H315.56Z"></path>
        <path class="cls-2" d="M361.86,301.39h-49.5V255.15h49.5Zm-46.3-3.21h43.09V258.36H315.56Z"></path>
        <path class="cls-2" d="M361.86,372.15h-49.5V325.91h49.5Zm-46.3-3.2h43.09V329.12H315.56Z"></path>
        <path class="cls-2" d="M431.4,230.63H381.9V184.39h49.5Zm-46.3-3.21h43.09V187.6H385.1Z"></path>
        <path class="cls-2" d="M431.4,301.39H381.9V255.15h49.5Zm-46.3-3.21h43.09V258.36H385.1Z"></path>
        <path class="cls-2" d="M431.4,372.15H381.9V325.91h49.5ZM385.1,369h43.09V329.12H385.1Z"></path>
        <path class="cls-2" d="M500.93,230.63h-49.5V184.39h49.5Zm-46.29-3.21h43.09V187.6H454.64Z"></path>
        <path class="cls-2" d="M500.93,301.39h-49.5V255.15h49.5Zm-46.29-3.21h43.09V258.36H454.64Z"></path>
        <path class="cls-2" d="M500.93,372.15h-49.5V325.91h49.5ZM454.64,369h43.09V329.12H454.64Z"></path>
        <path class="cls-2" d="M570.47,230.63H521V184.39h49.5Zm-46.29-3.21h43.08V187.6H524.18Z"></path>
        <path class="cls-2" d="M570.47,301.39H521V255.15h49.5Zm-46.29-3.21h43.08V258.36H524.18Z"></path>
        <path class="cls-2" d="M570.47,372.15H521V325.91h49.5ZM524.18,369h43.08V329.12H524.18Z"></path>
        <path class="cls-2" d="M640,230.63h-49.5V184.39H640Zm-46.29-3.21H636.8V187.6H593.72Z"></path>
        <path class="cls-2" d="M640,301.39h-49.5V255.15H640Zm-46.29-3.21H636.8V258.36H593.72Z"></path>
        <path class="cls-2" d="M640,372.15h-49.5V325.91H640ZM593.72,369H636.8V329.12H593.72Z"></path>
        <path class="cls-2" d="M709.55,230.63h-49.5V184.39h49.5Zm-46.3-3.21h43.09V187.6H663.25Z"></path>
        <path class="cls-2" d="M709.55,301.39h-49.5V255.15h49.5Zm-46.3-3.21h43.09V258.36H663.25Z"></path>
        <path class="cls-2" d="M709.55,372.15h-49.5V325.91h49.5Zm-46.3-3.2h43.09V329.12H663.25Z"></path>
        <rect class="cls-2" x="325.75" width="3.21" height="87.02"></rect>
        <rect class="cls-2" x="995.99" width="3.21" height="87.02"></rect>
      </g>
      <g id="Woman">
        <path class="cls-2" d="M616.4,389.46s-19.92-3.24-19.17,16.64,8,41.06,8,41.06,2.68,11.87-2.72,23.27c0,0,33.58-4.57,39.17-20.28l-1.36-57.49Z"></path>
        <path class="cls-3" d="M624.87,505.13l1.8-54.11s-30.75,8.13-19.19-50.77c0,0,11.62-11.77,26.47-4.33a42.21,42.21,0,0,1,19.8,21.46l9,83.06Z"></path>
        <path class="cls-2" d="M623.21,507l1.79-54a17.56,17.56,0,0,1-13.9-4.5c-8.24-7.73-10-24-5.19-48.47l.09-.47.34-.34c.12-.13,12.62-12.52,28.33-4.65a43.49,43.49,0,0,1,20.59,22.37l.08.36,9.17,84.63Zm5.13-58-1.8,54.39L661,499l-8.81-81.28a41,41,0,0,0-18.94-20.41c-12.31-6.17-22.35,2-24.28,3.72-5.53,28.62-.7,40.27,4.34,45,5.62,5.26,12.89,3.42,13,3.4Z"></path>
        <path class="cls-2" d="M608,398.17s5.57,7.9,12.42,12.1c5.78,3.55,12.72,3.36,15.3,4.8,0,0,7.06,27.48-7.39,52.55,0,0,20.61.27,35.35-19.12a87.68,87.68,0,0,1-5.5,8.84s25,1,9.84-55.21c-9.82-36.4-53.14-18.72-59.63-12.59Z"></path>
        <path class="cls-3" d="M659.29,853.94c10.86,47,22,96.36,22.59,102.81.37,4.21-17.12,12.84-17.12,12.84l40.24-.85L690.71,846.83l-9.6-82h-42.6S648.75,808.3,659.29,853.94Z"></path>
        <path class="cls-2" d="M657.58,971.35l6.47-3.19c8.62-4.26,16.21-9.53,16.23-11.27-.46-5.21-8.26-40.68-22.56-102.59h0c-10.41-45.12-20.67-88.67-20.77-89.1l-.47-2h46L706.79,970.3Zm3.27-117.77c14.53,62.93,22.14,97.6,22.62,103,.31,3.43-6.23,7.95-12,11.24l31.73-.68L679.68,766.43H640.53c2.12,9,11.16,47.48,20.32,87.15Z"></path>
        <path class="cls-2" d="M706,958.69l2.36,16.15a6.64,6.64,0,0,1-6.57,7.6H644a1.46,1.46,0,0,1-.65-2.76l26.14-13.08a1.51,1.51,0,0,1,.89-.13c3.49.59,25.89,3.83,32.88-8.29A1.45,1.45,0,0,1,706,958.69Z"></path>
        <path class="cls-2" d="M701.78,984H644a3.06,3.06,0,0,1-1.37-5.8l26.14-13.07a3,3,0,0,1,1.87-.28c2.51.42,24.71,3.8,31.23-7.51a3.06,3.06,0,0,1,5.68,1.08h0l2.35,16.15a8.24,8.24,0,0,1-8.15,9.43Zm-57.14-3.21h57.14a5,5,0,0,0,5-5.76l-2.29-15.73c-7.66,12.5-29.91,9.45-34.33,8.71ZM706,958.69l-1.58.24h0Z"></path>
        <path class="cls-3" d="M591.77,969.59l40.24-.85-1.78-115.92-1.35-88h-42.6s4.58,38.19,9.62,80.56c5.88,49.42,12.39,104.53,13,111.36C609.27,961,591.77,969.59,591.77,969.59Z"></path>
        <path class="cls-2" d="M584.6,971.35l6.46-3.19c8.63-4.26,16.22-9.53,16.24-11.27-.66-7.48-8.42-72.95-13-111.32-5-42.36-9.62-80.55-9.62-80.55l-.21-1.79h46l3.18,207.08Zm3.49-204.92c1,8,5,41.8,9.4,78.77,4.57,38.38,12.34,103.89,13,111.41.31,3.43-6.23,7.95-12,11.24l31.9-.68L627.3,766.43Z"></path>
        <path class="cls-2" d="M633,958.69l2.36,16.15a6.65,6.65,0,0,1-6.57,7.6H571.05a1.46,1.46,0,0,1-.65-2.76l26.14-13.08a1.5,1.5,0,0,1,.89-.13c3.48.59,25.89,3.83,32.88-8.29A1.45,1.45,0,0,1,633,958.69Z"></path>
        <path class="cls-2" d="M628.8,984H571.05a3.06,3.06,0,0,1-1.37-5.8l26.14-13.07a3,3,0,0,1,1.87-.28c2.51.42,24.71,3.8,31.23-7.51a3.06,3.06,0,0,1,5.68,1.08h0L637,974.61A8.24,8.24,0,0,1,628.8,984Zm-57.14-3.21H628.8a5,5,0,0,0,5-5.76l-2.3-15.73c-7.65,12.5-29.9,9.45-34.32,8.71ZM633,958.69l-1.59.24h0Z"></path>
        <path class="cls-3" d="M690.83,625l-103.51,8s-14.6,171.9-13.93,202c0,0,103.68,22.51,157.25-9C730.64,826,710.24,696.63,690.83,625Z"></path>
        <path class="cls-2" d="M649.72,844.49a399.85,399.85,0,0,1-76.67-8l-1.23-.27,0-1.26c-.66-29.87,13.79-200.48,13.94-202.2l.11-1.36L692,623.29l.34,1.28c19.22,70.9,39.65,199.9,39.85,201.2l.17,1.08-.94.55C709,840.6,678.19,844.49,649.72,844.49ZM575,833.66c11.81,2.38,104.39,19.7,153.9-8.48-2-12.6-21.12-131-39.25-198.49l-100.82,7.75C587.46,650.48,574.73,802.27,575,833.66Z"></path>
        <path class="cls-4" d="M531.52,512,515.15,531.4l36.35,41.84s9,7,17.91-5l24-28.24s4.2,23.57,1.05,38.84c0,0-7.86,49.82-10,64.4,0,0,74.9,20.29,114.51-8l-6.16-42.17,20.64,6.65a15.48,15.48,0,0,0,20.21-13.16c.43-4.77-.16-10.92-2.54-18.87l-24.38-78.12s-2.7-11.86-12.8-14.39l-34-10.49s-25.17,22.26-33.34.49L592.86,478.6,553,530.94Z"></path>
        <path class="cls-3" d="M605.21,569.31l29.45,8L655,574.23l12.94,4,3.66-17.57-12.31-1.33-5.89-4c-14.46-6.67-30.52,0-30.52,0,3.74,6,7,2.67,11.78,4s3.21,4,3.21,4L628.23,566l-17.67-2.67C607.89,564,605.21,569.31,605.21,569.31Z"></path>
        <path class="cls-2" d="M669.15,580.26l-14.27-4.39L634.56,579l-31.66-8.62.88-1.75c.5-1,3.17-6,6.39-6.83l.31-.08,17.65,2.67,8.32-2.31a3.86,3.86,0,0,0-2.22-1.19,11.48,11.48,0,0,0-3.89-.24c-2.74.16-5.84.33-8.82-4.46l-1-1.6,1.74-.73c.68-.28,16.88-6.86,31.81,0l.23.13,5.56,3.78,13.67,1.48Zm-14-7.67,11.61,3.57,2.94-14.11-10.95-1.19-6.11-4.16c-10.76-4.9-22.57-2.06-27.15-.61,1.42,1.5,2.71,1.43,4.7,1.32a14.34,14.34,0,0,1,4.92.35c2.33.65,3.81,1.71,4.39,3.18a3.72,3.72,0,0,1-.23,3.2l-.33.55-10.58,2.93L610.7,565a9.92,9.92,0,0,0-3.07,3.36l27.12,7.37Z"></path>
        <polygon class="cls-3" points="540.17 460.19 473.88 460.19 507.55 548.57 573.84 548.57 540.17 460.19"></polygon>
        <path class="cls-2" d="M576.16,550.17H506.45l-34.89-91.59h69.71ZM508.66,547h62.85l-32.45-85.17H476.21Z"></path>
        <polygon class="cls-2" points="696.38 596.22 664.59 584.72 670.15 558.04 716.38 563.18 716.03 566.37 672.69 561.55 668.3 582.65 697.47 593.2 696.38 596.22"></polygon>
        <path class="cls-2" d="M592.6,545.41c-3.63-29.92,7.52-41.95,8-42.45l2.32,2.21c-.11.11-10.57,11.6-7.14,39.85Z"></path>
        <rect class="cls-2" x="683.75" y="524.31" width="3.21" height="38.14" transform="translate(-118.03 197.63) rotate(-15.12)"></rect>
        <path class="cls-3" d="M479.76,476.16l3.56,8.79,3.84-1.68a7.13,7.13,0,0,1,9.64,4.27c2,6.26,3.2,15.65-3.14,23.89,0,0-10.43-.91-15-16C475.49,484.71,476.46,481.18,479.76,476.16Z"></path>
        <path class="cls-2" d="M494.39,513.11l-.87-.08c-.47,0-11.57-1.19-16.36-17.17-3.32-11-2.34-15.11,1.26-20.58l1.68-2.55,4.09,10.09,2.33-1a8.83,8.83,0,0,1,7.14.05,8.62,8.62,0,0,1,4.66,5.2c2.17,6.74,3.34,16.61-3.39,25.36ZM479.5,479.79c-1.62,3.39-1.71,7,.73,15.15,3.43,11.45,10.34,14.14,12.73,14.74,5.24-7.47,4.18-15.84,2.31-21.64a5.33,5.33,0,0,0-2.93-3.27,5.61,5.61,0,0,0-4.54,0l-5.35,2.34Z"></path>
      </g>
      <g id="Computer">
        <path class="cls-2" d="M761.15,474.56l-11.31,101.8a9.4,9.4,0,0,0,9.34,10.43H910.44a9.4,9.4,0,0,0,9.34-8.36l11.31-101.8a9.4,9.4,0,0,0-9.34-10.43H770.49A9.4,9.4,0,0,0,761.15,474.56Z"></path>
        <path class="cls-3" d="M939.13,476.64,927.82,578.43a9.4,9.4,0,0,1-9.34,8.36H767.22a9.39,9.39,0,0,1-9.34-10.43l11.31-101.8a9.39,9.39,0,0,1,9.34-8.36H929.79A9.39,9.39,0,0,1,939.13,476.64Z"></path>
        <path class="cls-2" d="M918.48,588.4H767.22a11,11,0,0,1-10.93-12.22l11.31-101.8a11,11,0,0,1,10.93-9.79H929.79a11,11,0,0,1,10.93,12.23L929.41,578.61A11,11,0,0,1,918.48,588.4Zm-140-120.6a7.77,7.77,0,0,0-7.74,6.93l-11.31,101.8a7.77,7.77,0,0,0,7.74,8.66H918.48a7.77,7.77,0,0,0,7.74-6.93l11.31-101.8a7.77,7.77,0,0,0-7.74-8.66Z"></path>
        <rect class="cls-2" x="827.74" y="534.53" width="16.08" height="52.26"></rect>
        <polygon class="cls-3" points="827.74 534.53 861.24 534.53 882.67 613.59 799.6 613.59 799.6 605.55 845.15 605.55 827.74 534.53"></polygon>
        <path class="cls-2" d="M884.77,615.2H798V604h45.12l-17.42-71h36.77ZM801.2,612h79.38L860,536.14H829.78l17.42,71h-46Z"></path>
        <rect class="cls-5" x="805.64" y="574.72" width="2.88" height="4.31"></rect>
        <rect class="cls-5" x="799.16" y="574.72" width="2.88" height="4.31"></rect>
        <rect class="cls-5" x="792.69" y="574.72" width="2.88" height="4.31"></rect>
        <rect class="cls-5" x="786.22" y="574.72" width="2.88" height="4.31"></rect>
      </g>
      <g id="Table">
        <polygon class="cls-3" points="342.98 934.34 342.98 986.75 835.84 986.75 835.84 934.02 342.98 934.34"></polygon>
        <path class="cls-2" d="M837.44,988.35H341.38V932.74l496.06-.32Zm-492.85-3.2H834.23V935.63L344.59,936Z"></path>
        <polygon class="cls-2" points="827.93 934.34 827.93 986.75 1029.27 986.75 1029.27 934.02 827.93 934.34"></polygon>
        <path class="cls-2" d="M1030.87,988.35H826.32V932.74l204.55-.32Zm-201.34-3.2h198.14V935.63l-198.14.31Z"></path>
        <rect class="cls-3" x="296.65" y="613.94" width="552.85" height="340.27"></rect>
        <path class="cls-2" d="M851.1,955.82H295V612.34H851.1Zm-552.85-3.21H847.89V615.54H298.25Z"></path>
        <rect class="cls-3" x="828.37" y="613.4" width="224.92" height="341.34"></rect>
        <path class="cls-2" d="M1054.9,956.35H826.77V611.8H1054.9ZM830,953.14h221.72V615H830Z"></path>
        <polygon class="cls-3" points="282.86 613.47 282.86 639.43 849.5 639.43 849.5 613.31 282.86 613.47"></polygon>
        <path class="cls-2" d="M851.1,641H281.26V611.87l569.84-.16Zm-566.63-3.21H847.9V614.92l-563.43.15Z"></path>
        <polygon class="cls-2" points="829.37 613.47 829.37 639.43 1083.2 639.43 1083.2 613.31 829.37 613.47"></polygon>
        <path class="cls-2" d="M1084.81,641h-257V611.87l257-.16ZM831,637.83H1081.6V614.92L831,615.07Z"></path>
        <polygon class="cls-2" points="765.67 765.28 724.52 765.28 724.52 762.08 762.47 762.08 762.47 751.92 765.67 751.92 765.67 765.28"></polygon>
        <polygon class="cls-2" points="765.67 801.62 724.52 801.62 724.52 798.42 762.47 798.42 762.47 788.26 765.67 788.26 765.67 801.62"></polygon>
        <polygon class="cls-2" points="789.19 782.38 748.04 782.38 748.04 779.18 785.98 779.18 785.98 769.02 789.19 769.02 789.19 782.38"></polygon>
        <polygon class="cls-2" points="742.16 782.38 701.01 782.38 701.01 779.18 738.95 779.18 738.95 769.02 742.16 769.02 742.16 782.38"></polygon>
        <polygon class="cls-2" points="605.35 808.03 564.2 808.03 564.2 804.83 602.14 804.83 602.14 794.67 605.35 794.67 605.35 808.03"></polygon>
        <polygon class="cls-2" points="501.67 764.21 460.52 764.21 460.52 761.01 498.46 761.01 498.46 750.85 501.67 750.85 501.67 764.21"></polygon>
        <polygon class="cls-2" points="681.24 891.4 640.09 891.4 640.09 888.2 678.03 888.2 678.03 878.04 681.24 878.04 681.24 891.4"></polygon>
        <polygon class="cls-2" points="579.7 827.27 538.55 827.27 538.55 824.07 576.49 824.07 576.49 813.91 579.7 813.91 579.7 827.27"></polygon>
      </g>
      <g id="Underline">
        <rect class="cls-2" x="159.81" y="986.87" width="930" height="3"></rect>
      </g>
      <circle class="cls-2" cx="898.63" cy="279.25" r="105.74"></circle>
      <rect class="cls-3" x="898.63" y="191.73" width="5.28" height="93.4"></rect>
      <polygon class="cls-4" points="442.57 170.97 435.81 164.69 392.8 216.33 399.56 222.61 442.57 170.97"></polygon>
      <polygon class="cls-4" points="397.77 162.28 391.18 168.75 437.6 217.34 444.19 210.87 397.77 162.28"></polygon>
      <polygon class="cls-4" points="580.16 247.12 573.39 240.85 530.39 292.49 537.15 298.76 580.16 247.12"></polygon>
      <polygon class="cls-4" points="535.36 238.43 528.77 244.9 575.19 293.49 581.78 287.02 535.36 238.43"></polygon>
      <polygon class="cls-4" points="501.61 310.87 494.85 304.59 451.84 356.23 458.61 362.51 501.61 310.87"></polygon>
      <polygon class="cls-4" points="456.81 302.18 450.22 308.65 496.64 357.24 503.23 350.77 456.81 302.18"></polygon>
      <rect class="cls-3" x="843.82" y="274.61" width="60.1" height="10.52"></rect>
      <circle class="cls-3" cx="986.73" cy="279.87" r="7.55"></circle>
      <circle class="cls-3" cx="979.39" cy="314.45" r="7.55"></circle>
      <circle class="cls-3" cx="959.06" cy="343.36" r="7.55"></circle>
      <circle class="cls-3" cx="929" cy="361.95" r="7.55"></circle>
      <circle class="cls-3" cx="894.06" cy="367.23" r="7.55"></circle>
    </g>
  </g>
</svg>