<svg xmlns="http://www.w3.org/2000/svg" viewBox="0 0 1302.44 897.59"><defs><style>.cls-1{fill:#fcd6db;}.cls-2,.cls-6{fill:#fff;}.cls-3{fill:#121212;}.cls-4{fill:#0f0f0f;}.cls-5{fill:#fac3ca;}.cls-6{stroke:#231f20;stroke-miterlimit:10;stroke-width:4px;}</style></defs><g id="Layer_2" data-name="Layer 2"><g id="Illustration"><g id="Wave_background" data-name="Wave background"><path class="cls-1" d="M238,540.59s33-54,99-25c0,0,26,7,50-26s49-52,139-18c0,0,58,16,113-37s216-64,396,106Z"></path></g><g id="Airplane"><path class="cls-2" d="M333.93,233.12l-2.31,9.26a17.19,17.19,0,0,0,12.52,20.85l61.75,15.42L416.53,236l-61.75-15.42A17.19,17.19,0,0,0,333.93,233.12Z"></path><path class="cls-3" d="M407,280.47l-63.2-15.78A18.68,18.68,0,0,1,330.17,242l2.31-9.26a18.72,18.72,0,0,1,22.67-13.61l63.2,15.79Zm-71.59-47-2.31,9.25a15.7,15.7,0,0,0,11.42,19l60.3,15.06,9.91-39.72-60.29-15.06a15.72,15.72,0,0,0-19,11.43Z"></path><path class="cls-3" d="M352.84,265.4l53.05,13.25L416.53,236l-52.16-13C358.74,228.42,349,241.6,352.84,265.4Z"></path><path class="cls-3" d="M345.6,264.44c-.32-.93-7.66-23.15,10.95-44.11l2.24,2c-17.46,19.66-10.42,40.93-10.35,41.14Z"></path><path class="cls-2" d="M420.1,146.09,495.61,165l107.58-43.06,6.28-2.52s-8.53-9.37-29.6-5.84Z"></path><path class="cls-3" d="M495.72,166.52l-82.4-20.58,166.25-33.88c21.68-3.63,30.64,5.9,31,6.3L612,120Zm-68.83-20.28,68.62,17.13,111-44.44c-3.4-2.33-11.75-6.38-26.43-3.92Z"></path><path class="cls-3" d="M437.86,151.91,437.2,149l143.32-32.52c15.79-2.56,22.57,4.47,22.85,4.77l-2.2,2,1.1-1-1.09,1c-.24-.25-6.08-6.14-20.09-3.88Z"></path><rect class="cls-3" x="516.85" y="128.93" width="3" height="19.44" transform="translate(150.53 529.31) rotate(-61.7)"></rect><path class="cls-3" d="M475.09,159.82,495.61,165l107.58-43.06c-6.35-4.22-13.75-2.09-13.75-2.09Z"></path><path class="cls-2" d="M716.11,205.26s39.94-8.65,59.67,3.52l-49.07,28.63L709.54,208.8Z"></path><path class="cls-3" d="M726.19,239.45l-18.75-31.23,8.15-4.38.2,0c1.66-.36,40.77-8.65,60.78,3.7l2.13,1.32Zm-14.56-30.08,15.61,26,45.52-26.56c-18.91-9.48-53.18-2.73-56.13-2.12Z"></path><path class="cls-3" d="M770.69,212.65c-.15-.08-15.53-8.06-52.48-.14l-.63-2.93c38.24-8.2,53.9.08,54.55.44Z"></path><path class="cls-2" d="M173.2,122.41c1.31,6.34,8.85,20.06,47.12,33.05l154.55,48.43L523.46,241s113.26,23.11,156.25,12.63l65.56-2.45a8.7,8.7,0,0,0,2.46-16.94l-22-7.41L716,214,608.51,187.45,258.24,100s-30.25-7-53.39.9a42.36,42.36,0,0,0-13.65,7.46s-11.41,1.26-16.56,7.83c0,0,0,0,0,0A7.64,7.64,0,0,0,173.2,122.41Z"></path><path class="cls-3" d="M649.57,257.87c-50.18,0-122.66-14.64-126.41-15.41L374.51,205.34,219.87,156.89c-38.43-13-46.65-27-48.14-34.17h0a9.09,9.09,0,0,1,1.51-7.19v0l.24-.29c4.91-6.26,14.81-8,17.09-8.3a44,44,0,0,1,13.78-7.45c23.29-8,53-1.23,54.22-.94L608.87,186l108,26.71,9.79,12.84,21.56,7.27a10.18,10.18,0,0,1,6.63,12.13,10.21,10.21,0,0,1-9.51,7.73l-65.41,2.44C671.79,257.07,661.29,257.87,649.57,257.87ZM176,116.9l-.17.21a6.08,6.08,0,0,0-1.13,5h0c1.09,5.26,7.76,18.91,46.13,31.93l154.52,48.42,148.5,37.08c.87.17,75.7,15.29,126.16,15.3,11.42,0,21.59-.78,29.37-2.68l.3,0,65.57-2.45a7.2,7.2,0,0,0,2-14l-22.43-7.57-9.7-12.73-107-26.45L257.88,101.43c-.28-.06-30.09-6.83-52.55.86a40.71,40.71,0,0,0-13.16,7.19l-.35.29-.45,0C191.26,109.84,180.74,111.08,176,116.9Z"></path><path class="cls-2" d="M775.64,120.24,716,214l9.75,12.79s-65.16-4.37-122.28-36.75c0,0,45-16.7,60.64-27.3l57.47-37.4S743.61,107.59,775.64,120.24Z"></path><path class="cls-3" d="M728.93,228.53l-3.29-.22c-.66,0-66.16-4.76-122.92-36.94l-2.81-1.59,3-1.12c.45-.16,45.06-16.75,60.31-27.13l57.45-37.38c1.44-1.11,23.93-17.77,55.49-5.3l1.69.67L717.82,214ZM607,190.33c48.13,26.39,101.7,33.29,115.46,34.69l-8.32-10.91L773.39,121c-29.88-10.89-50.67,5.38-50.88,5.55l-.12.09L664.92,164C651.56,173.12,617.47,186.37,607,190.33Z"></path><path class="cls-3" d="M741.74,252.18c-6-7.67-1.88-16.54,1.16-20.15l2.3,1.92c-.3.35-7.12,8.72-1.1,16.38Z"></path><path class="cls-3" d="M610.13,195.08l-.41-3c32.9-4.61,96.09-48.9,108.42-57.73,33-23.64,53.3-9.29,54.14-8.66l-1.78,2.41.89-1.2-.88,1.21c-.78-.57-19.47-13.62-50.62,8.68C707.46,145.73,643.73,190.37,610.13,195.08Z"></path><path class="cls-3" d="M720,221c-.44,0-45.22-4.26-97.44-29.32l1.3-2.7c51.73,24.83,96,29,96.41,29Z"></path><path class="cls-3" d="M174.62,116.18a7.64,7.64,0,0,0-1.42,6.23c1.31,6.34,8.85,20.06,47.12,33.05l154.55,48.43L523.46,241s113.26,23.11,156.25,12.63l65.56-2.45a8.72,8.72,0,0,0,5.93-2.65l-134.36-12a148.89,148.89,0,0,1-26.66-4.86L174.64,116.16Z"></path><path class="cls-2" d="M181.58,136.22l-1-2.83c6.1-2.11,9.81-5.62,11-10.42l2.91.73C193.05,129.55,188.69,133.76,181.58,136.22Z"></path><path class="cls-4" d="M194.84,122.17l-3-.46c1-6.17-2.1-12.14-2.13-12.2l2.66-1.38C192.56,108.4,196,115,194.84,122.17Z"></path><path class="cls-2" d="M191.2,108.33l28.21,7a5.28,5.28,0,0,0,6.36-6.55h0a5.29,5.29,0,0,0-3.8-3.68l-17.12-4.28A42.36,42.36,0,0,0,191.2,108.33Z"></path><path class="cls-3" d="M220.72,117a6.88,6.88,0,0,1-1.67-.21L188,109.08l2.25-1.89a43.65,43.65,0,0,1,14.12-7.74l.42-.14,17.55,4.38a6.8,6.8,0,0,1,4.88,4.74,6.78,6.78,0,0,1-6.49,8.61Zm-26.14-9.41,25.2,6.29a3.77,3.77,0,0,0,4.54-4.68,3.78,3.78,0,0,0-2.72-2.64l-16.69-4.16A42.51,42.51,0,0,0,194.58,107.63Z"></path><rect class="cls-4" x="211.44" y="107.93" width="10.8" height="3" transform="translate(58.14 293.3) rotate(-75.98)"></rect><rect class="cls-4" x="202.67" y="105.74" width="10.8" height="3" transform="translate(53.62 283.13) rotate(-75.98)"></rect><path class="cls-2" d="M273.81,118.41h0A8,8,0,0,0,263.9,124l-3,10.63a8,8,0,0,0,5.55,9.92h0a8,8,0,0,0,9.91-5.54l3-10.64A8,8,0,0,0,273.81,118.41Z"></path><path class="cls-3" d="M268.64,146.31a9.35,9.35,0,0,1-2.61-.37,9.52,9.52,0,0,1-6.58-11.76l3-10.63A9.55,9.55,0,0,1,274.22,117h0a9.55,9.55,0,0,1,6.58,11.77l-3,10.63a9.55,9.55,0,0,1-9.16,6.95Zm3-26.7a6.54,6.54,0,0,0-6.29,4.75l-3,10.63a6.53,6.53,0,0,0,12.57,3.56l3-10.63a6.55,6.55,0,0,0-4.51-8.07h0A6.46,6.46,0,0,0,271.63,119.61Z"></path><path class="cls-2" d="M588.15,207.17h0a8,8,0,0,0-9.91,5.54l-3,10.63a8,8,0,0,0,5.55,9.92h0a8,8,0,0,0,9.91-5.55l3-10.63A8,8,0,0,0,588.15,207.17Z"></path><path class="cls-3" d="M583,235.07a9.35,9.35,0,0,1-2.61-.37,9.54,9.54,0,0,1-6.58-11.77l3-10.63a9.55,9.55,0,0,1,11.77-6.58h0a9.54,9.54,0,0,1,6.58,11.77l-3,10.63a9.5,9.5,0,0,1-4.52,5.73A9.6,9.6,0,0,1,583,235.07Zm3-26.71a6.53,6.53,0,0,0-6.28,4.76l-3,10.63a6.53,6.53,0,0,0,9.48,7.48,6.46,6.46,0,0,0,3.1-3.93l3-10.63a6.55,6.55,0,0,0-4.52-8.06A6.43,6.43,0,0,0,586,208.36Z"></path><path class="cls-3" d="M293.55,127.49h0a3.13,3.13,0,0,0-3.87,2.17l-1.18,4.15a3.15,3.15,0,0,0,2.17,3.88h0a3.13,3.13,0,0,0,3.87-2.17l1.18-4.15A3.15,3.15,0,0,0,293.55,127.49Z"></path><path class="cls-3" d="M309,131.87h0a3.12,3.12,0,0,0-3.87,2.16L304,138.18a3.13,3.13,0,0,0,2.16,3.88h0a3.15,3.15,0,0,0,3.88-2.17l1.17-4.15A3.13,3.13,0,0,0,309,131.87Z"></path><path class="cls-3" d="M324,136.11h0a3.15,3.15,0,0,0-3.88,2.17l-1.17,4.15a3.15,3.15,0,0,0,2.17,3.88h0a3.14,3.14,0,0,0,3.87-2.17l1.17-4.15A3.14,3.14,0,0,0,324,136.11Z"></path><path class="cls-3" d="M339.45,140.49h0a3.12,3.12,0,0,0-3.87,2.16l-1.18,4.15a3.15,3.15,0,0,0,2.17,3.88h0a3.13,3.13,0,0,0,3.87-2.17l1.18-4.15A3.13,3.13,0,0,0,339.45,140.49Z"></path><path class="cls-3" d="M354.43,144.7h0a3.13,3.13,0,0,0-3.87,2.17L349.39,151a3.13,3.13,0,0,0,2.16,3.88h0a3.15,3.15,0,0,0,3.88-2.17l1.17-4.15A3.15,3.15,0,0,0,354.43,144.7Z"></path><path class="cls-3" d="M369.89,149.07h0a3.14,3.14,0,0,0-3.87,2.17l-1.17,4.15a3.15,3.15,0,0,0,2.16,3.88h0a3.15,3.15,0,0,0,3.88-2.17l1.17-4.15A3.15,3.15,0,0,0,369.89,149.07Z"></path><path class="cls-3" d="M384.87,153.32h0a3.13,3.13,0,0,0-3.87,2.17l-1.18,4.15a3.15,3.15,0,0,0,2.17,3.88h0a3.13,3.13,0,0,0,3.87-2.17L387,157.2A3.15,3.15,0,0,0,384.87,153.32Z"></path><path class="cls-3" d="M399.84,157.57h0a3.14,3.14,0,0,0-3.87,2.17l-1.17,4.15a3.15,3.15,0,0,0,2.16,3.88h0a3.15,3.15,0,0,0,3.88-2.17l1.17-4.15A3.15,3.15,0,0,0,399.84,157.57Z"></path><path class="cls-3" d="M414.82,161.82h0A3.13,3.13,0,0,0,411,164l-1.18,4.15a3.13,3.13,0,0,0,2.17,3.87h0a3.12,3.12,0,0,0,3.87-2.16L417,165.7A3.15,3.15,0,0,0,414.82,161.82Z"></path><path class="cls-3" d="M429.79,166.07h0a3.14,3.14,0,0,0-3.87,2.17l-1.17,4.15a3.14,3.14,0,0,0,2.16,3.87h0a3.15,3.15,0,0,0,3.88-2.16l1.17-4.16A3.14,3.14,0,0,0,429.79,166.07Z"></path><path class="cls-3" d="M444.77,170.32h0a3.13,3.13,0,0,0-3.87,2.17l-1.18,4.15a3.13,3.13,0,0,0,2.17,3.87h0a3.14,3.14,0,0,0,3.87-2.16l1.18-4.16A3.14,3.14,0,0,0,444.77,170.32Z"></path><path class="cls-3" d="M459.74,174.57h0a3.14,3.14,0,0,0-3.87,2.17l-1.17,4.15a3.14,3.14,0,0,0,2.16,3.87h0a3.15,3.15,0,0,0,3.88-2.17l1.17-4.15A3.13,3.13,0,0,0,459.74,174.57Z"></path><path class="cls-3" d="M474.72,178.8h0a3.14,3.14,0,0,0-3.87,2.17l-1.17,4.15a3.14,3.14,0,0,0,2.16,3.88h0a3.15,3.15,0,0,0,3.88-2.17l1.17-4.15A3.15,3.15,0,0,0,474.72,178.8Z"></path><path class="cls-3" d="M490.19,183.17h0a3.15,3.15,0,0,0-3.88,2.17l-1.17,4.15a3.15,3.15,0,0,0,2.16,3.88h0a3.15,3.15,0,0,0,3.88-2.17l1.17-4.15A3.15,3.15,0,0,0,490.19,183.17Z"></path><path class="cls-3" d="M505.65,187.54h0a3.15,3.15,0,0,0-3.88,2.17l-1.17,4.15a3.15,3.15,0,0,0,2.17,3.88h0a3.14,3.14,0,0,0,3.87-2.17l1.17-4.15A3.14,3.14,0,0,0,505.65,187.54Z"></path><path class="cls-3" d="M521.11,191.91h0a3.13,3.13,0,0,0-3.87,2.17l-1.18,4.15a3.15,3.15,0,0,0,2.17,3.88h0a3.13,3.13,0,0,0,3.87-2.17l1.18-4.15A3.15,3.15,0,0,0,521.11,191.91Z"></path><path class="cls-3" d="M536.57,196.29h0a3.12,3.12,0,0,0-3.87,2.16l-1.18,4.15a3.15,3.15,0,0,0,2.17,3.88h0a3.13,3.13,0,0,0,3.87-2.17l1.18-4.15A3.13,3.13,0,0,0,536.57,196.29Z"></path><path class="cls-3" d="M552,200.66h0a3.13,3.13,0,0,0-3.87,2.16L547,207a3.13,3.13,0,0,0,2.16,3.88h0a3.15,3.15,0,0,0,3.88-2.17l1.17-4.15A3.13,3.13,0,0,0,552,200.66Z"></path><path class="cls-3" d="M567.5,205h0a3.15,3.15,0,0,0-3.88,2.16l-1.17,4.16a3.14,3.14,0,0,0,2.16,3.87h0a3.15,3.15,0,0,0,3.88-2.17l1.17-4.15A3.14,3.14,0,0,0,567.5,205Z"></path><path class="cls-2" d="M318.85,181.61,432.88,355a58,58,0,0,0,36.54,23.62L466.06,366,432.61,240a6.94,6.94,0,0,1-.21-2.6c.21-2.88,1.76-8,8.61-14.45,0,0,9-7.07,4.87-13.28,0,0-18.16-22.64-117.9-39.79C328,169.92,315.8,169,318.85,181.61Z"></path><path class="cls-3" d="M471.48,380.53l-2.33-.43a58.88,58.88,0,0,1-37.54-24.3L317.45,182.22l-.06-.25c-1.05-4.37-.54-7.81,1.51-10.21,3.22-3.77,9-3.35,9.2-3.33h.13c99.17,17.05,118.06,39.39,118.82,40.34l.07.1c4.72,7.07-4.23,14.52-5.13,15.24-6.64,6.3-7.92,11.11-8.09,13.43a5.76,5.76,0,0,0,.13,2ZM320.25,181,434.13,354.18a57,57,0,0,0,33.22,22.47L431.17,240.46a8.69,8.69,0,0,1-.27-3.13c.25-3.36,2-8.77,9.08-15.43l.1-.09c.08-.06,7.8-6.23,4.59-11.2-.93-1.05-21.3-22.76-116.86-39.2-.52,0-4.56-.14-6.64,2.31C319.82,175.31,319.51,177.76,320.25,181Z"></path><path class="cls-3" d="M418.25,236.37l39.1,119.49a17.31,17.31,0,0,0,8.52,10l.19.09L432.61,240a6.94,6.94,0,0,1-.21-2.6,65.88,65.88,0,0,0-11.45-4A2.29,2.29,0,0,0,418.25,236.37Z"></path><path class="cls-3" d="M443,221.05c-.3-.27-30.55-27-106.15-35.21l.33-3c76.69,8.34,106.6,34.85,107.84,36Z"></path><path class="cls-3" d="M466.14,369.21c-14.79-4-27.6-21.35-28.14-22.09l-.06-.08L326.71,170.72l2.54-1.6,111.2,176.27c.68.91,13,17.27,26.48,20.92Z"></path><path class="cls-3" d="M428.88,272.24c-.36-.18-37-18-48.12-17.32l-.2-3c11.86-.78,48.11,16.87,49.64,17.62Z"></path><path class="cls-2" d="M736.22,269.8l-18.28-34.58-80.13-10.7-1.7,6.83L698,261.51a24.22,24.22,0,0,0,2.94,1.21A149.38,149.38,0,0,0,736.22,269.8Z"></path><path class="cls-3" d="M738.81,271.49l-2.7-.19a150.28,150.28,0,0,1-35.62-7.16,27.25,27.25,0,0,1-3.12-1.28l-63-30.7,2.32-9.3,82.23,11Zm-100.95-41,60.83,29.63a22.89,22.89,0,0,0,2.76,1.14,148.29,148.29,0,0,0,32.17,6.78L717,236.61l-78-10.42Z"></path><path class="cls-3" d="M733.19,265.93c-.87-.12-21.43-2.88-34.67-8-.55-.22-1.13-.47-1.77-.78l-60.14-29.06,1.3-2.7,60.15,29.06c.57.27,1.07.5,1.55.68,12.9,5,33.76,7.82,34,7.84Z"></path></g><g id="Chair"><rect class="cls-2" x="321.91" y="724.78" width="17.51" height="52.53"></rect><path class="cls-3" d="M340.92,778.81H320.41V723.28h20.51Zm-17.51-3h14.51V726.28H323.41Z"></path><rect class="cls-2" x="654.59" y="724.78" width="17.51" height="52.53"></rect><path class="cls-3" d="M673.6,778.81H653.09V723.28H673.6Zm-17.51-3H670.6V726.28H656.09Z"></path><rect class="cls-2" x="973.8" y="731.51" width="17.51" height="45.58"></rect><path class="cls-3" d="M992.81,778.59H972.3V730h20.51Zm-17.51-3h14.51V733H975.3Z"></path><path class="cls-2" d="M225.15,687.74V543.17a17.06,17.06,0,0,1,17.06-17.06h849.45a17.05,17.05,0,0,1,17,17.06V687.74Z"></path><path class="cls-3" d="M1110.21,689.24H223.65V543.17a18.59,18.59,0,0,1,18.56-18.56h849.45a18.58,18.58,0,0,1,18.55,18.56Zm-883.56-3h880.56V543.17a15.58,15.58,0,0,0-15.55-15.56H242.21a15.58,15.58,0,0,0-15.56,15.56Z"></path><rect class="cls-3" x="393.84" y="526.11" width="3" height="161.63"></rect><rect class="cls-3" x="573.62" y="526.11" width="3" height="161.63"></rect><rect class="cls-3" x="751.41" y="526.11" width="3" height="161.63"></rect><rect class="cls-2" x="253.44" y="699.19" width="826.99" height="32.33"></rect><path class="cls-3" d="M1081.93,733h-830V697.69h830Zm-827-3h824V700.69h-824Z"></path><rect class="cls-3" x="930.54" y="526.11" width="3" height="161.63"></rect><rect class="cls-2" x="202.26" y="678.98" width="929.35" height="30.98"></rect><path class="cls-3" d="M1133.11,711.46H200.76v-34h932.35Zm-929.35-3h926.35v-28H203.76Z"></path><rect class="cls-3" x="8.08" y="775.81" width="1286.28" height="3"></rect><rect class="cls-3" y="804.09" width="1302.44" height="3"></rect></g><g id="Window"><polygon class="cls-3" points="1232.55 777.31 1229.55 777.31 1229.55 3 98.16 3 98.16 777.31 95.16 777.31 95.16 0 1232.55 0 1232.55 777.31"></polygon><rect class="cls-2" x="96.66" y="154.45" width="1134.4" height="15.75"></rect><path class="cls-3" d="M1232.55,171.7H95.16V153H1232.55Zm-1134.39-3H1229.55V156H98.16Z"></path><rect class="cls-3" x="687.08" y="1.5" width="3" height="524.61"></rect><rect class="cls-3" x="134.87" y="337.09" width="202.25" height="3" transform="translate(-169.26 260.44) rotate(-44.21)"></rect><rect class="cls-3" x="209.36" y="341.09" width="103.28" height="3" transform="translate(-164.06 273.23) rotate(-43.43)"></rect><rect class="cls-3" x="356.79" y="420.09" width="211.43" height="3" transform="translate(-162.74 448.5) rotate(-44.81)"></rect><rect class="cls-3" x="430.65" y="450.09" width="99.7" height="3" transform="translate(-178.43 476.73) rotate(-45.41)"></rect><rect class="cls-3" x="917.79" y="383.09" width="211.43" height="3" transform="translate(26.28 832.94) rotate(-44.8)"></rect><rect class="cls-3" x="991.65" y="413.09" width="99.7" height="3" transform="translate(15.07 865.2) rotate(-45.41)"></rect><rect class="cls-3" x="882.65" y="331.09" width="99.7" height="3" transform="translate(40.99 763.15) rotate(-45.41)"></rect><rect class="cls-3" x="278.29" y="396.59" width="105.42" height="3" transform="translate(-182.66 333.35) rotate(-43.07)"></rect></g><g id="Plant"><path class="cls-3" d="M168,688.22l-3-.26c5.9-69.82-27.55-150.48-27.89-151.29l2.76-1.16C140.22,536.32,174,617.67,168,688.22Z"></path><path class="cls-3" d="M173,688.13c0-.84-1.49-84.52,43.13-186.64l2.74,1.2C174.54,604.17,176,687.23,176,688.05Z"></path><rect class="cls-2" x="145" y="682.59" width="47" height="95"></rect><path class="cls-3" d="M193.5,779.09h-50v-98h50Zm-47-3h44v-92h-44Z"></path><path class="cls-2" d="M209.5,458.09s-5.44,29.44,4.28,52.72C213.78,510.81,228.5,486.09,209.5,458.09Z"></path><path class="cls-3" d="M213.55,514.14l-1.15-2.75C202.62,488,207.8,459,208,457.82l.67-3.6,2.05,3c19.31,28.46,4.48,54.07,4.33,54.33Zm-3.14-51.81c-1,8.22-2.42,27.74,3.52,44.69C216.83,500.12,222.1,482.27,210.41,462.33Z"></path><path class="cls-2" d="M237.5,485.09a40.7,40.7,0,0,0-24,26A43.33,43.33,0,0,0,237.5,485.09Z"></path><path class="cls-3" d="M211.21,513.49l.85-2.83a41.82,41.82,0,0,1,25-27l2.9-1-1,2.89c-7.16,20.44-24.2,26.66-24.92,26.92ZM234.76,488a39.64,39.64,0,0,0-18.67,20.28A42.9,42.9,0,0,0,234.76,488Z"></path><path class="cls-2" d="M195.5,493.09s-6.31,32.06,4.84,53.53C200.34,546.62,212.5,511.09,195.5,493.09Z"></path><path class="cls-3" d="M200.63,550.42,199,547.31c-11.27-21.68-5.24-53.18-5-54.51l.56-2.86,2,2.12c17.42,18.45,5.68,53.56,5.17,55.05Zm-4.17-53.85c-1.13,8-3.23,29.29,3.56,45.79C202.37,533.42,206.86,510.68,196.46,496.57Z"></path><path class="cls-2" d="M198.74,554.59s14.76-24.5,44.76-34.5C243.5,520.09,231,551.09,198.74,554.59Z"></path><path class="cls-3" d="M195.89,556.41l1.57-2.6c.61-1,15.39-25.08,45.57-35.14l3.08-1-1.22,3c-.13.32-13.23,31.87-46,35.43Zm44.66-33.66c-21.17,8.16-34.08,23.61-38.65,29.87C224.6,548.62,236.54,530.26,240.55,522.75Z"></path><path class="cls-2" d="M186.85,598.31s14.65-36.22,45.65-34.22C232.5,564.09,217.19,587.52,186.85,598.31Z"></path><path class="cls-3" d="M184.2,600.84l1.25-3.1c.16-.37,15.44-37.19,47.15-35.15l2.56.17-1.4,2.15c-.64,1-15.94,24-46.41,34.81Zm45.41-35.32c-22.38.29-35.54,21.71-39.82,30.07A98.06,98.06,0,0,0,229.61,565.52Z"></path><path class="cls-2" d="M174.5,541.09s19.67,15.66,12.83,50.83C187.33,591.92,169.5,570.09,174.5,541.09Z"></path><path class="cls-3" d="M188.2,595.35l-2-2.48c-.74-.91-18.21-22.7-13.15-52l.43-2.5,2,1.58c.84.66,20.31,16.63,13.38,52.29Zm-12.64-51.14c-2.53,20.71,6.67,37.45,10.91,43.9C190.18,563.22,180,549.08,175.56,544.21Z"></path><path class="cls-2" d="M177.73,651.78s12.77-36.69,54.77-42.69C232.5,609.09,224,641.48,177.73,651.78Z"></path><path class="cls-3" d="M175.43,653.83l.89-2.54c.13-.38,13.55-37.62,56-43.68l2.24-.32-.58,2.18c-.09.34-9.31,33.39-55.89,43.78ZM230.26,611c-32.29,5.72-46.22,30.48-50,38.67C215.77,640.71,227.38,618.18,230.26,611Z"></path><path class="cls-2" d="M176.5,638.09s-15-32-14-63C162.5,575.09,187.5,598.09,176.5,638.09Z"></path><path class="cls-3" d="M176.87,642.41l-1.73-3.68C175,638.4,160,606,161,575l.11-3.27,2.41,2.22c.25.23,25.54,24.08,14.43,64.5ZM164,578.91c.2,22.7,8.46,45.44,12.15,54.47C182.29,604.81,169.56,585.67,164,578.91Z"></path><path class="cls-2" d="M142.5,502.09s-11,17.5-4,35.25C138.5,537.34,148.5,523.09,142.5,502.09Z"></path><path class="cls-3" d="M138.13,540.48l-1-2.59c-7.19-18.25,3.66-35.86,4.13-36.6l1.79-2.84.92,3.23c6.13,21.44-3.79,35.92-4.21,36.52ZM142,506.32c-2.45,5.32-6.23,16.11-3.14,27.32A43.35,43.35,0,0,0,142,506.32Z"></path><path class="cls-2" d="M152.5,527.09s-10.28,12.25-3.64,38.12A53.65,53.65,0,0,0,152.5,527.09Z"></path><path class="cls-3" d="M148.34,569.2l-.93-3.61c-6.75-26.32,3.5-38.94,3.94-39.46l1.82-2.17.77,2.72A54.67,54.67,0,0,1,150.17,566Zm3.57-38.26c-2.26,4.49-5.55,14.26-2.58,29.55A53.16,53.16,0,0,0,151.91,530.94Z"></path><path class="cls-2" d="M121.5,520.09s12.66,3.63,18.33,19.32C139.83,539.41,125.5,534.09,121.5,520.09Z"></path><path class="cls-3" d="M142.34,541.94l-3-1.13c-.62-.22-15.09-5.74-19.25-20.31l-.75-2.6,2.6.75c.55.16,13.47,4,19.33,20.25ZM124.1,522.85c3.12,7,9,11.29,12.78,13.44A30.21,30.21,0,0,0,124.1,522.85Z"></path><path class="cls-2" d="M119.5,546.09s16.89,2.23,29.45,22.61C149,568.7,127.5,565.09,119.5,546.09Z"></path><path class="cls-3" d="M152,570.73l-3.26-.55c-.91-.15-22.36-4-30.58-23.51l-1-2.41,2.6.34c.71.1,17.74,2.56,30.52,23.32Zm-29.75-22.44c6.12,11.38,17.52,16.21,23.35,18C137,554.17,127,549.79,122.21,548.29Z"></path><path class="cls-2" d="M126.5,576.09s18.92.43,30.46,22.22C157,598.31,140.5,597.09,126.5,576.09Z"></path><path class="cls-3" d="M159.56,600l-2.71-.2c-.7,0-17.36-1.51-31.6-22.88l-1.6-2.39,2.88.06c.81,0,19.94.71,31.76,23Zm-29.85-22c9.37,12.65,19.42,16.81,24.32,18.15C146,583,135.06,579.18,129.71,578.05Z"></path><path class="cls-2" d="M126.5,609.09s23.25-3,37.63,29C164.13,638.09,141.5,633.09,126.5,609.09Z"></path><path class="cls-3" d="M166.72,640.2l-2.92-.64c-1-.21-23.41-5.42-38.57-29.67l-1.24-2,2.32-.3c1-.12,24.52-2.77,39.19,29.88Zm-37.48-29.65a65.9,65.9,0,0,0,32.08,25.12C150.4,614,135.21,610.88,129.24,610.55Z"></path><path class="cls-2" d="M167.5,562.09s-13.08,8.43-9.54,36.22C158,598.31,170.5,583.09,167.5,562.09Z"></path><path class="cls-3" d="M156.91,601.94l-.44-3.44c-3.61-28.4,9.65-37.3,10.22-37.67l2-1.27.33,2.32c3.06,21.41-9.33,36.74-9.86,37.38Zm9.42-36.75c-3.08,3.42-8.53,12-7.29,28.89C162.16,589,167.34,578.39,166.33,565.19Z"></path><path class="cls-2" d="M175.5,583.09s-16.75,12.5-11.37,45.25C164.13,628.34,177.5,610.09,175.5,583.09Z"></path><path class="cls-3" d="M163.23,632.11l-.58-3.53c-5.46-33.26,11.24-46.16,11.95-46.69l2.19-1.64L177,583c2,27.24-11.1,45.48-11.66,46.25Zm10.94-45.62C170.22,591,162.63,602.65,165,624A73.72,73.72,0,0,0,174.17,586.49Z"></path><path class="cls-2" d="M145.5,696.09h0Z"></path><rect class="cls-3" x="145.5" y="694.59" width="46.5" height="3"></rect><path class="cls-2" d="M145.5,709.09h0Z"></path><rect class="cls-3" x="145.5" y="707.59" width="46.5" height="3"></rect></g><g id="Man"><path class="cls-5" d="M626.5,320.7a20.75,20.75,0,1,0-39.93,7.89h0a22,22,0,0,0,1.49,2.9L605.75,366l17.7-34.48a20.59,20.59,0,0,0,1.48-2.88h0A20.49,20.49,0,0,0,626.5,320.7Zm-20.75,10.89a11,11,0,1,1,11-11A11,11,0,0,1,605.75,331.59Z"></path><polygon class="cls-2" points="751.5 832.09 753.5 867.09 779.5 867.09 781.5 832.09 751.5 832.09"></polygon><path class="cls-3" d="M780.92,868.59H752.08l-2.17-38h33.18Zm-26-3h23.16l1.83-32H753.09Z"></path><polygon class="cls-2" points="936.67 814.94 965.73 834.54 981.48 813.85 954.84 791.06 936.67 814.94"></polygon><path class="cls-3" d="M966.07,836.58l-31.56-21.29,20.1-26.4,28.92,24.74Zm-27.25-22,26.58,17.93,14-18.44-24.36-20.83Z"></path><path class="cls-5" d="M625.76,379.23h0a4.31,4.31,0,0,1,6-1l45.13,31.95a4.31,4.31,0,0,1,1,6h0a4.3,4.3,0,0,1-6,1l-45.14-31.95A4.3,4.3,0,0,1,625.76,379.23Z"></path><path class="cls-2" d="M777.5,406.09l-33,39-54-29.5-8-20.5h-20s-1,9,12,10l1,13.5-8-5,5-6s-12-12-25-8c0,0,2,11,7,18,0,0,9,10.5,17,14.5l12,5,66,53,53-45Z"></path><path class="cls-3" d="M749.53,492l-66.8-53.65-11.9-5c-8.18-4.09-17.09-14.42-17.47-14.86l-.08-.11c-5.14-7.19-7.17-18.14-7.26-18.6l-.23-1.31,1.27-.39a22.2,22.2,0,0,1,14.54.76,9.58,9.58,0,0,1-.59-4l.15-1.34h22.36l8.18,21,52.45,28.65,33.52-39.62,26.8,41.82Zm-77.41-61.31,12.15,5.06,65.2,52.36,51.06-43.35-23.2-36.19L744.85,447,689.3,416.65l-7.82-20.06H664.07a7,7,0,0,0,1.55,3.37c1.76,2.09,4.79,3.31,9,3.64l1.28.09,1.31,17.74-12-7.48,5.18-6.21c-2.93-2.51-11.76-9.14-21.17-7.06.7,3.08,2.71,10.76,6.42,16C656.35,417.43,664.78,427,672.12,430.73Zm-2.37-17.5,4,2.52-.5-6.76Z"></path><path class="cls-2" d="M786,540.59l21.5,154.5L935,833.59l26-42-99.5-117.5s4.5-89.5-.5-133.5Z"></path><path class="cls-3" d="M935.24,836.06,806.08,695.76l-.07-.46L784.28,539.09h78.06l.15,1.33c4.74,41.75.91,125.28.54,133.15l99.82,117.88ZM808.92,694.42l125.84,136.7,24.39-39.39L860,674.61l0-.59c0-.89,4.35-88.09-.34-131.93H787.72Z"></path><polygon class="cls-2" points="776.42 533.09 746.22 661.09 740.5 835.09 797.73 835.09 804.6 668.09 869.5 533.09 776.42 533.09"></polygon><path class="cls-3" d="M799.17,836.59H739l5.81-175.84,30.47-129.16h96.66l-65.8,136.87Zm-57.12-3h54.24l6.82-165.87.14-.28,63.86-132.85H777.6l-29.88,126.7Z"></path><path class="cls-2" d="M705.5,896.09s-4-7,4-12c0,0,35-14,44-24.5,0,0,9.35,12.5,26.17,0l6.83,36.5Z"></path><path class="cls-3" d="M788.31,897.59H704.63l-.43-.75c-1.63-2.86-2.79-9.46,4.51-14l.23-.12c.35-.14,34.76-14,43.42-24.09l1.22-1.42,1.12,1.5c.35.46,8.72,11.11,24.08-.3l1.93-1.44Zm-81.85-3h78.23l-6.06-32.44c-13.27,8.71-22.06,2.55-25.13-.37-10.29,10.24-40.73,22.61-43.31,23.65C705,888.75,705.8,892.87,706.46,894.59Z"></path><path class="cls-2" d="M959.74,890.3s-8-1.06-7.13-10.45c0,0,10.06-36.33,7.15-49.85,0,0,15.61.13,15.86-20.83l33.17,16.67Z"></path><path class="cls-3" d="M960.41,891.9l-.87-.11c-3.25-.43-9.21-3.51-8.42-12.08l0-.26c.1-.36,9.92-36.13,7.13-49.14l-.4-1.83,1.88,0h0c.59,0,14.11-.23,14.34-19.35l0-2.4,36.94,18.56Zm-6.31-11.78c-.52,6.15,3.26,8,5,8.51l47.38-62.26L977,811.56c-1.11,15.82-11.34,19.09-15.51,19.76C963.42,845.71,954.83,877.43,954.1,880.12Z"></path><path class="cls-3" d="M771.61,285.25s-18.85-1.07-16.21,17.35S766.84,340,766.84,340s3.64,10.78-.27,21.91c0,0,30.8-7.51,34.48-22.68l-6.87-53.36Z"></path><path class="cls-6" d="M790.77,392.06l-3.6-50.53s-27.82,10.56-22.8-45.37c0,0,9.67-12.09,24.21-6.61a39.5,39.5,0,0,1,20.51,18L825.56,384Z"></path><path class="cls-3" d="M764.66,294.17s6,6.8,12.74,10.05c5.72,2.74,12.17,1.89,14.71,3,0,0,9.24,24.89-1.76,49.62,0,0,19.2-1.75,31-21.23a80,80,0,0,1-4.26,8.76s23.37-1.48,3.78-52.33c-12.68-32.91-51.27-12.25-56.71-5.91Z"></path><path class="cls-5" d="M822.57,360.59l-36,21s-13.4,33.05-16.58,46c-6,24.36,10.24,91.6-1.69,126l110.69-1s-22.79-129.95-30.39-151.92S822.57,360.59,822.57,360.59Z"></path><path class="cls-2" d="M818,440.59s20.5-7.5,33-18l10,49,28,100,18,28s-1,13-4,18h-3l-1-14-13-6s9,19,4,28l-15-24-5-32Z"></path><path class="cls-3" d="M890.08,628.54l-16.51-26.41-5-32.14L816,439.71l1.45-.53c.21-.07,20.41-7.53,32.56-17.74l1.93-1.62,10.49,51.42L890.38,571l18.15,28.23,0,.51c0,.54-1.07,13.41-4.21,18.65l-.44.73H898.6l-1-14.51-8.67-4c2.41,6.15,6.39,18.59,2.41,25.74Zm-13.65-27.48,13.22,21.15c1.62-7.45-2.87-19.47-5-24l-1.77-3.73,17.56,8.1,1,13.49h.7c2-4.06,3-12.47,3.36-16.12l-17.84-27.76-.06-.21-28-100.11L850,425.3c-10.69,8.26-25.4,14.34-30.06,16.15l51.5,127.74,0,.17Z"></path><rect class="cls-5" x="938.65" y="594.73" width="5" height="157" transform="translate(-215.3 713.67) rotate(-37.58)"></rect><path class="cls-5" d="M1018.73,712,1036,698.68a8.25,8.25,0,0,1,11.57,1.51l94.83,123.23a8.24,8.24,0,0,1-1.51,11.57l-17.23,13.27Z"></path><path class="cls-3" d="M900.66,606.28a8.75,8.75,0,1,1-12.27-1.6A8.75,8.75,0,0,1,900.66,606.28Z"></path><path class="cls-3" d="M1147.07,859.87l-7.29-9.48a8.2,8.2,0,0,0-.37-9.49L1029.28,697.78a8.21,8.21,0,0,0-11.51-1.5l-12.51,9.63-14-18.22a7,7,0,0,0-11.1,8.53l14,18.23-13.31,10.24a8.21,8.21,0,0,0-1.5,11.51l110.14,143.12a8.2,8.2,0,0,0,11.5,1.5l33.52-25.8,7,9.12Z"></path><circle class="cls-5" cx="1096.37" cy="882.38" r="13.5" transform="translate(79.78 1855.61) rotate(-82.58)"></circle><path class="cls-3" d="M1103.1,877.2a8.5,8.5,0,1,1-11.92-1.55A8.5,8.5,0,0,1,1103.1,877.2Z"></path><path class="cls-5" d="M1099.73,879.79a4.25,4.25,0,1,1-6-.78A4.24,4.24,0,0,1,1099.73,879.79Z"></path><rect class="cls-5" x="1057.68" y="689.44" width="5" height="197" transform="translate(-260.56 810.06) rotate(-37.58)"></rect><rect class="cls-3" x="574.5" y="894.59" width="672" height="3"></rect><rect class="cls-3" x="812" y="417.39" width="3" height="23.41" transform="translate(-97.66 303.84) rotate(-19.98)"></rect><rect class="cls-3" x="847.04" y="402.68" width="3" height="23.17" transform="translate(-79 237.32) rotate(-15.22)"></rect><polygon class="cls-5" points="783.5 391.09 754.5 429.09 774.5 460.09 789.5 403.09 783.5 391.09"></polygon><path class="cls-3" d="M767.26,448.11c-.23-23.52,13-56.21,13.61-57.59l2.78,1.14c-.14.33-13.62,33.51-13.39,56.42Z"></path></g></g></g></svg>