<svg xmlns="http://www.w3.org/2000/svg" id="Layer_2" width="807.76" height="169.59" viewBox="0 0 807.76 169.59"><g id="Capa_1"><path d="M219.2,164.27c-.5-1.6-.74-6.46-.74-14.59s.25-12.99.74-14.59c1.14-3.55,3.68-5.32,7.61-5.32,2.29,0,4.12.69,5.49,2.06,1.37,1.37,2.19,3.32,2.46,5.83.08.38-.04.63-.34.74l-1.72.34c-.42.15-.63,0-.63-.46-.5-3.81-2.23-5.72-5.21-5.72-2.44,0-4.04,1.14-4.81,3.43-.38,1.18-.57,5.74-.57,13.67s.19,12.49.57,13.67c.76,2.29,2.36,3.43,4.81,3.43,3.01,0,4.75-1.92,5.21-5.78,0-.42.21-.55.63-.4l1.72.34c.3.04.42.27.34.69-.27,2.56-1.09,4.52-2.46,5.89-1.37,1.37-3.2,2.06-5.49,2.06-3.93,0-6.46-1.77-7.61-5.32Z"/><path d="M252.72,169.59c-4.08,0-6.69-1.77-7.84-5.32-.31-.92-.51-2.21-.6-3.89-.1-1.68-.14-5.24-.14-10.7s.05-9.02.14-10.7c.09-1.68.29-2.97.6-3.89,1.14-3.55,3.76-5.32,7.84-5.32s6.69,1.77,7.84,5.32c.31.92.51,2.21.6,3.89.09,1.68.14,5.24.14,10.7s-.05,9.02-.14,10.7c-.1,1.68-.3,2.97-.6,3.89-1.14,3.55-3.76,5.32-7.84,5.32ZM252.72,166.78c2.55,0,4.21-1.14,4.98-3.43.42-1.37.63-5.93.63-13.67s-.21-12.3-.63-13.67c-.73-2.29-2.38-3.43-4.98-3.43s-4.21,1.14-4.98,3.43c-.38,1.26-.57,5.82-.57,13.67s.19,12.41.57,13.67c.8,2.29,2.46,3.43,4.98,3.43Z"/><path d="M287.9,158.43c0,3.97-.65,6.82-1.94,8.55-1.3,1.74-3.4,2.6-6.29,2.6-5.3,0-8.08-3.26-8.35-9.78,0-.38.13-.59.4-.63l1.72-.34c.42-.11.63.04.63.46.19,2.75.74,4.69,1.66,5.83.92,1.14,2.25,1.72,4,1.72s3.17-.57,4-1.72c.84-1.14,1.26-3.26,1.26-6.35,0-2.4-.33-4.19-.97-5.35-.65-1.16-1.75-2.05-3.32-2.66l-2.34-.92c-2.56-.99-4.29-2.23-5.21-3.72-.92-1.49-1.37-3.72-1.37-6.69,0-6.44,2.63-9.67,7.89-9.67s7.74,2.99,7.89,8.98c0,.34-.13.55-.4.63l-1.66.29c-.42.11-.63-.04-.63-.46-.08-2.29-.53-3.98-1.34-5.06-.82-1.09-2.09-1.63-3.8-1.63s-3.03.53-3.83,1.6c-.8,1.07-1.2,2.8-1.2,5.21,0,2.21.31,3.85.94,4.92.63,1.07,1.76,1.93,3.4,2.57l2.34.92c2.48.99,4.19,2.24,5.12,3.75.93,1.51,1.4,3.82,1.4,6.95Z"/><path d="M298.6,168.56v-37.75c0-.38.19-.57.57-.57h1.95c.38,0,.63.19.74.57l7.78,26.09h.11l7.67-26.09c.11-.38.36-.57.74-.57h1.94c.38,0,.57.19.57.57v37.75c0,.38-.19.57-.57.57h-1.66c-.38,0-.57-.19-.57-.57v-29.86h-.17l-6.86,22.94c-.11.38-.33.57-.63.57h-1.14c-.31,0-.51-.19-.63-.57l-6.86-22.94h-.17v29.86c0,.38-.19.57-.57.57h-1.66c-.38,0-.57-.19-.57-.57Z"/><path d="M332.75,168.56v-37.75c0-.38.19-.57.57-.57h13.21c.38,0,.57.19.57.57v1.66c0,.38-.19.57-.57.57h-10.47c-.23,0-.34.11-.34.34v14.3c0,.23.11.34.34.34h9.15c.38,0,.57.19.57.57v1.66c0,.38-.19.57-.57.57h-9.15c-.23,0-.34.12-.34.34v14.82c0,.23.11.34.34.34h10.47c.38,0,.57.19.57.57v1.66c0,.38-.19.57-.57.57h-13.21c-.38,0-.57-.19-.57-.57Z"/><path d="M364.44,169.13h-1.83c-.38,0-.57-.19-.57-.57v-35.18c0-.23-.11-.34-.34-.34h-6.86c-.38,0-.57-.19-.57-.57v-1.66c0-.38.19-.57.57-.57h17.39c.38,0,.57.19.57.57v1.66c0,.38-.19.57-.57.57h-6.87c-.23,0-.34.11-.34.34v35.18c0,.38-.19.57-.57.57Z"/><path d="M382,168.56v-37.75c0-.38.19-.57.57-.57h1.83c.38,0,.57.19.57.57v37.75c0,.38-.19.57-.57.57h-1.83c-.38,0-.57-.19-.57-.57Z"/><path d="M397.16,164.27c-.5-1.6-.74-6.46-.74-14.59s.25-12.99.74-14.59c1.14-3.55,3.68-5.32,7.61-5.32,2.29,0,4.12.69,5.49,2.06,1.37,1.37,2.19,3.32,2.46,5.83.08.38-.04.63-.34.74l-1.72.34c-.42.15-.63,0-.63-.46-.5-3.81-2.23-5.72-5.21-5.72-2.44,0-4.04,1.14-4.81,3.43-.38,1.18-.57,5.74-.57,13.67s.19,12.49.57,13.67c.76,2.29,2.36,3.43,4.81,3.43,3.01,0,4.75-1.92,5.21-5.78,0-.42.21-.55.63-.4l1.72.34c.3.04.42.27.34.69-.27,2.56-1.09,4.52-2.46,5.89-1.37,1.37-3.2,2.06-5.49,2.06-3.93,0-6.46-1.77-7.61-5.32Z"/><path d="M444.29,169.13h-1.83c-.38,0-.57-.19-.57-.57v-35.18c0-.23-.11-.34-.34-.34h-6.86c-.38,0-.57-.19-.57-.57v-1.66c0-.38.19-.57.57-.57h17.39c.38,0,.57.19.57.57v1.66c0,.38-.19.57-.57.57h-6.87c-.23,0-.34.11-.34.34v35.18c0,.38-.19.57-.57.57Z"/><path d="M456.65,168.56l8.18-37.75c.11-.38.32-.57.63-.57h1.89c.34,0,.55.19.63.57l8.01,37.75c.08.38-.1.57-.51.57h-1.83c-.34,0-.55-.19-.63-.57l-1.94-9.32h-9.5l-1.95,9.32c-.08.38-.27.57-.57.57h-1.83c-.46,0-.65-.19-.57-.57ZM462.14,156.55h8.35l-4.06-19.85h-.11l-4.18,19.85Z"/><path d="M490.17,169.13h-1.83c-.38,0-.57-.19-.57-.57v-35.18c0-.23-.11-.34-.34-.34h-6.86c-.38,0-.57-.19-.57-.57v-1.66c0-.38.19-.57.57-.57h17.39c.38,0,.57.19.57.57v1.66c0,.38-.19.57-.57.57h-6.87c-.23,0-.34.11-.34.34v35.18c0,.38-.19.57-.57.57Z"/><path d="M515.62,169.13h-1.83c-.38,0-.57-.19-.57-.57v-35.18c0-.23-.11-.34-.34-.34h-6.86c-.38,0-.57-.19-.57-.57v-1.66c0-.38.19-.57.57-.57h17.39c.38,0,.57.19.57.57v1.66c0,.38-.19.57-.57.57h-6.87c-.23,0-.34.11-.34.34v35.18c0,.38-.19.57-.57.57Z"/><path d="M539.76,169.59c-4.08,0-6.69-1.77-7.84-5.32-.31-.92-.51-2.21-.6-3.89-.1-1.68-.14-5.24-.14-10.7s.05-9.02.14-10.7c.09-1.68.29-2.97.6-3.89,1.14-3.55,3.76-5.32,7.84-5.32s6.69,1.77,7.84,5.32c.31.92.51,2.21.6,3.89.09,1.68.14,5.24.14,10.7s-.05,9.02-.14,10.7c-.1,1.68-.3,2.97-.6,3.89-1.14,3.55-3.76,5.32-7.84,5.32ZM539.76,166.78c2.55,0,4.21-1.14,4.98-3.43.42-1.37.63-5.93.63-13.67s-.21-12.3-.63-13.67c-.73-2.29-2.38-3.43-4.98-3.43s-4.21,1.14-4.98,3.43c-.38,1.26-.57,5.82-.57,13.67s.19,12.41.57,13.67c.8,2.29,2.46,3.43,4.98,3.43Z"/><path d="M567.74,169.59c-4.08,0-6.69-1.77-7.84-5.32-.31-.92-.51-2.21-.6-3.89-.1-1.68-.14-5.24-.14-10.7s.05-9.02.14-10.7c.09-1.68.29-2.97.6-3.89,1.14-3.55,3.76-5.32,7.84-5.32s6.69,1.77,7.84,5.32c.31.92.51,2.21.6,3.89.09,1.68.14,5.24.14,10.7s-.05,9.02-.14,10.7c-.1,1.68-.3,2.97-.6,3.89-1.14,3.55-3.76,5.32-7.84,5.32ZM567.74,166.78c2.55,0,4.21-1.14,4.98-3.43.42-1.37.63-5.93.63-13.67s-.21-12.3-.63-13.67c-.73-2.29-2.38-3.43-4.98-3.43s-4.21,1.14-4.98,3.43c-.38,1.26-.57,5.82-.57,13.67s.19,12.41.57,13.67c.8,2.29,2.46,3.43,4.98,3.43Z"/><path d="M2.93,1.92c1.95,0,2.93.94,2.93,2.89s-.98,2.97-2.93,2.97S0,6.76,0,4.8.97,1.92,2.93,1.92M5.86,16.52c0,1.96-.98,2.95-2.93,2.95s-2.93-.99-2.93-2.95.97-2.89,2.93-2.89,2.93.94,2.93,2.89M5.86,28.24c0,1.95-.98,2.92-2.93,2.92s-2.93-.97-2.93-2.92.97-2.93,2.93-2.93,2.93.97,2.93,2.93M2.93,37.01c1.95,0,2.93,1,2.93,2.95s-.98,2.9-2.93,2.9-2.93-.95-2.93-2.9.97-2.95,2.93-2.95M5.86,51.68c0,1.95-.98,2.89-2.93,2.89s-2.93-.93-2.93-2.89.97-2.97,2.93-2.97,2.93,1.02,2.93,2.97M5.86,63.4c0,1.95-.98,2.88-2.93,2.88s-2.93-.92-2.93-2.88.97-2.98,2.93-2.98,2.93,1.02,2.93,2.98M5.86,75.12c0,1.95-.98,2.88-2.93,2.88s-2.93-.93-2.93-2.88.97-2.98,2.93-2.98,2.93,1.02,2.93,2.98M2.93,83.86c1.95,0,2.93,1.02,2.93,2.96s-.98,2.9-2.93,2.9-2.93-.95-2.93-2.9.97-2.96,2.93-2.96M10.19,11.13c1.95,0,2.94,1,2.94,2.95s-.99,2.9-2.94,2.9-2.92-.95-2.92-2.9.97-2.95,2.92-2.95M17.57,20.31c1.95,0,2.92.93,2.92,2.89s-.97,2.95-2.92,2.95-2.94-1-2.94-2.95.98-2.89,2.94-2.89M24.84,29.43c1.95,0,2.91.93,2.91,2.88s-.96,2.97-2.91,2.97-2.94-1.02-2.94-2.97.97-2.88,2.94-2.88M32.1,38.55c1.94,0,2.92.96,2.92,2.91s-.97,2.95-2.92,2.95-2.94-1.01-2.94-2.95.98-2.91,2.94-2.91M39.46,47.67c1.96,0,2.94,1.02,2.94,2.97s-.98,2.9-2.94,2.9-2.91-.94-2.91-2.9.97-2.97,2.91-2.97M46.72,38.55c-1.95,0-2.91.96-2.91,2.91s.96,2.95,2.91,2.95,2.95-1.01,2.95-2.95-1-2.91-2.95-2.91M53.99,29.43c-1.95,0-2.91.93-2.91,2.88s.96,2.97,2.91,2.97,2.94-1.02,2.94-2.97-.99-2.88-2.94-2.88M61.38,20.31c-1.95,0-2.94.93-2.94,2.89s.98,2.95,2.94,2.95,2.92-1,2.92-2.95-.97-2.89-2.92-2.89M68.64,11.13c-1.95,0-2.94,1-2.94,2.95s.98,2.9,2.94,2.9,2.91-.95,2.91-2.9-.96-2.95-2.91-2.95M75.89,1.92c-1.95,0-2.93.94-2.93,2.89s.97,2.97,2.93,2.97,2.92-1.02,2.92-2.97-.97-2.89-2.92-2.89"/><path d="M95.57,1.92c1.95,0,2.92.94,2.92,2.89s-.97,2.97-2.92,2.97-2.94-1.02-2.94-2.97.99-2.89,2.94-2.89M98.5,16.52c0,1.96-.97,2.95-2.92,2.95s-2.94-.99-2.94-2.95.99-2.89,2.94-2.89,2.92.94,2.92,2.89M98.5,28.24c0,1.95-.97,2.92-2.92,2.92s-2.94-.97-2.94-2.92.99-2.93,2.94-2.93,2.92.97,2.92,2.93M95.57,37.01c1.95,0,2.92,1,2.92,2.95s-.97,2.9-2.92,2.9-2.94-.94-2.94-2.9.99-2.95,2.94-2.95M98.5,51.67c0,1.96-.97,2.89-2.92,2.89s-2.94-.93-2.94-2.89.99-2.97,2.94-2.97,2.92,1.02,2.92,2.97M98.5,63.4c0,1.96-.97,2.88-2.92,2.88s-2.94-.92-2.94-2.88.99-2.98,2.94-2.98,2.92,1.03,2.92,2.98M98.5,75.12c0,1.95-.97,2.88-2.92,2.88s-2.94-.93-2.94-2.88.99-2.98,2.94-2.98,2.92,1.02,2.92,2.98M95.57,83.86c1.95,0,2.92,1.02,2.92,2.97s-.97,2.89-2.92,2.89-2.94-.95-2.94-2.89.99-2.97,2.94-2.97M107.3,1.92c1.95,0,2.92.94,2.92,2.89s-.97,2.97-2.92,2.97-2.95-1.02-2.95-2.97,1-2.89,2.95-2.89M107.3,37.01c1.95,0,2.92,1,2.92,2.95s-.97,2.9-2.92,2.9-2.95-.94-2.95-2.9,1-2.95,2.95-2.95M107.3,83.86c1.95,0,2.92,1.02,2.92,2.97s-.97,2.89-2.92,2.89-2.95-.95-2.95-2.89,1-2.97,2.95-2.97M119.01,1.92c1.95,0,2.92.94,2.92,2.89s-.97,2.97-2.92,2.97-2.95-1.02-2.95-2.97,1-2.89,2.95-2.89M119.01,37.01c1.95,0,2.92,1,2.92,2.95s-.97,2.9-2.92,2.9-2.95-.94-2.95-2.9,1-2.95,2.95-2.95M119.01,83.86c1.95,0,2.92,1.02,2.92,2.97s-.97,2.89-2.92,2.89-2.95-.95-2.95-2.89,1-2.97,2.95-2.97M130.71,1.92c1.94,0,2.92.94,2.92,2.89s-.97,2.97-2.92,2.97-2.94-1.02-2.94-2.97.97-2.89,2.94-2.89M130.71,37.01c1.94,0,2.92,1,2.92,2.95s-.97,2.9-2.92,2.9-2.94-.94-2.94-2.9.97-2.95,2.94-2.95M130.71,83.86c1.94,0,2.92,1.02,2.92,2.97s-.97,2.89-2.92,2.89-2.94-.95-2.94-2.89.97-2.97,2.94-2.97M142.41,1.92c1.96,0,2.94.94,2.94,2.89s-.97,2.97-2.94,2.97-2.93-1.02-2.93-2.97.98-2.89,2.93-2.89M142.41,83.86c1.96,0,2.94,1.02,2.94,2.97s-.97,2.89-2.94,2.89-2.93-.95-2.93-2.89.98-2.97,2.93-2.97"/><path d="M160.56,4.81c0-1.96,1-2.89,2.95-2.89s2.91.93,2.91,2.89-.96,2.96-2.91,2.96-2.95-1.01-2.95-2.96M163.51,19.47c-1.95,0-2.95-.99-2.95-2.95s1-2.9,2.95-2.9,2.91.95,2.91,2.9-.96,2.95-2.91,2.95M163.51,31.16c-1.95,0-2.95-.97-2.95-2.92s1-2.93,2.95-2.93,2.91.98,2.91,2.93-.96,2.92-2.91,2.92M163.51,42.85c-1.95,0-2.95-.94-2.95-2.89s1-2.96,2.95-2.96,2.91,1.01,2.91,2.96-.96,2.89-2.91,2.89M160.56,51.68c0-1.95,1-2.97,2.95-2.97s2.91,1.02,2.91,2.97-.96,2.89-2.91,2.89-2.95-.94-2.95-2.89M163.51,66.27c-1.95,0-2.95-.92-2.95-2.88s1-2.98,2.95-2.98,2.91,1.03,2.91,2.98-.96,2.88-2.91,2.88M163.51,78c-1.95,0-2.95-.92-2.95-2.88s1-2.98,2.95-2.98,2.91,1.03,2.91,2.98-.96,2.88-2.91,2.88M160.56,86.83c0-1.95,1-2.97,2.95-2.97s2.91,1.02,2.91,2.97-.96,2.89-2.91,2.89-2.95-.94-2.95-2.89M172.17,51.75c0-1.94.95-2.89,2.91-2.89s2.94.95,2.94,2.89-.99,2.97-2.94,2.97-2.91-1.01-2.91-2.97M172.27,4.81c0-1.96,1.01-2.89,2.96-2.89s2.91.93,2.91,2.89-.96,2.96-2.91,2.96-2.96-1.01-2.96-2.96M183.88,51.75c0-1.94.96-2.89,2.92-2.89s2.94.95,2.94,2.89-.99,2.97-2.94,2.97-2.92-1.01-2.92-2.97M183.98,4.81c0-1.96,1-2.89,2.95-2.89s2.91.93,2.91,2.89-.96,2.96-2.91,2.96-2.95-1.01-2.95-2.96M191.63,60.58c0-1.95.94-2.97,2.89-2.97s2.97,1.02,2.97,2.97-1.02,2.89-2.97,2.89-2.89-.93-2.89-2.89M195.48,51.09c0-1.95.95-2.95,2.91-2.95s2.95,1,2.95,2.95-1,2.89-2.95,2.89-2.91-.93-2.91-2.89M195.59,5.99c0-1.95.98-2.93,2.92-2.93s2.93.98,2.93,2.93-.97,2.92-2.93,2.92-2.92-.96-2.92-2.92M199.33,69.32c0-1.95.98-2.89,2.92-2.89s2.94.94,2.94,2.89-.98,2.98-2.94,2.98-2.92-1.03-2.92-2.98M205.2,12.52c0-1.95.97-2.9,2.92-2.9s2.94.95,2.94,2.9-.99,2.96-2.94,2.96-2.92-1.01-2.92-2.96M205.3,45c0-1.95.97-2.98,2.94-2.98s2.92,1.03,2.92,2.98-.97,2.89-2.92,2.89-2.94-.92-2.94-2.89M207.05,78.16c0-1.95,1.01-2.98,2.96-2.98s2.89,1.03,2.89,2.98-.93,2.88-2.89,2.88-2.96-.94-2.96-2.88M210.24,22.82c0-1.95.95-2.89,2.91-2.89s2.94.94,2.94,2.89-.99,2.98-2.94,2.98-2.91-1.01-2.91-2.98M210.34,34.54c0-1.95.98-2.89,2.94-2.89s2.92.93,2.92,2.89-.97,2.97-2.92,2.97-2.94-1.01-2.94-2.97M214.79,86.83c0-1.95.98-2.97,2.94-2.97s2.91,1.02,2.91,2.97-.96,2.89-2.91,2.89-2.94-.94-2.94-2.89"/><path d="M230.26,4.8c0-1.95.96-2.89,2.91-2.89s2.94.94,2.94,2.89-.99,2.97-2.94,2.97-2.91-1.02-2.91-2.97"/><path d="M237.3,14.19c0-1.95.93-2.93,2.89-2.93s2.96.98,2.96,2.93-1.02,2.92-2.96,2.92-2.89-.97-2.89-2.92"/><path d="M244.3,23.57c0-1.95.98-2.97,2.94-2.97s2.92,1.02,2.92,2.97-.97,2.89-2.92,2.89-2.94-.93-2.94-2.89"/><path d="M251.31,32.91c0-1.95,1.01-2.89,2.96-2.89s2.89.94,2.89,2.89-.94,2.97-2.89,2.97-2.96-1.02-2.96-2.97"/><path d="M258.47,42.29c0-1.94.97-2.92,2.92-2.92s2.93.98,2.93,2.92-.97,2.94-2.93,2.94-2.92-.99-2.92-2.94"/><path d="M266.07,49.82c0-1.95,1.01-2.88,2.96-2.88s2.9.93,2.9,2.88-.95,2.98-2.9,2.98-2.96-1.02-2.96-2.98"/><path d="M278.39,42.29c0-1.94-.99-2.92-2.94-2.92s-2.92.98-2.92,2.92.97,2.94,2.92,2.94,2.94-.99,2.94-2.94"/><path d="M285.44,32.91c0-1.95-1.03-2.89-2.98-2.89s-2.89.94-2.89,2.89.93,2.97,2.89,2.97,2.98-1.02,2.98-2.97"/><path d="M292.43,23.57c0-1.95-.97-2.97-2.93-2.97s-2.93,1.02-2.93,2.97.98,2.89,2.93,2.89,2.93-.93,2.93-2.89"/><path d="M299.44,14.19c0-1.95-.93-2.93-2.89-2.93s-2.98.98-2.98,2.93,1.03,2.92,2.98,2.92,2.89-.97,2.89-2.92"/><path d="M306.5,4.8c0-1.95-.99-2.89-2.94-2.89s-2.92.94-2.92,2.89.98,2.97,2.92,2.97,2.94-1.02,2.94-2.97"/><path d="M245.01,86.72c0-1.95-1-2.96-2.95-2.96s-2.92,1.01-2.92,2.96.97,2.89,2.92,2.89,2.95-.93,2.95-2.89"/><path d="M252.05,77.36c0-1.94-1.01-2.95-2.97-2.95s-2.89,1.01-2.89,2.95.95,2.9,2.89,2.9,2.97-.95,2.97-2.9"/><path d="M259.04,67.95c0-1.95-.96-2.89-2.92-2.89s-2.94.93-2.94,2.89.99,2.98,2.94,2.98,2.92-1.03,2.92-2.98"/><path d="M266.07,58.61c0-1.95-.95-2.96-2.89-2.96s-2.97,1.01-2.97,2.96,1.02,2.89,2.97,2.89,2.89-.93,2.89-2.89"/><path d="M340.01,45.82c0,1.95-1,2.89-2.96,2.89s-2.89-.94-2.89-2.89.95-2.96,2.89-2.96,2.96,1.02,2.96,2.96M341.65,34.32c0,1.96-1.02,2.96-2.96,2.96s-2.89-1-2.89-2.96.93-2.89,2.89-2.89,2.96.94,2.96,2.89M341.65,57.38c0-1.95-1.02-2.88-2.96-2.88s-2.89.92-2.89,2.88.93,2.98,2.89,2.98,2.96-1.03,2.96-2.98M346.17,23.57c0,1.96-.94,2.89-2.89,2.89s-2.97-.93-2.97-2.89,1.02-2.97,2.97-2.97,2.89,1.03,2.89,2.97M346.17,68.07c0-1.96-.94-2.96-2.89-2.96s-2.97,1.01-2.97,2.96,1.02,2.89,2.97,2.89,2.89-.94,2.89-2.89M353.59,14.51c0,1.96-1.01,2.97-2.96,2.97s-2.89-1.02-2.89-2.97.93-2.88,2.89-2.88,2.96.94,2.96,2.88M353.59,77.09c0-1.96-1.01-2.94-2.96-2.94s-2.89.98-2.89,2.94.93,2.92,2.89,2.92,2.96-.97,2.96-2.92M363.16,7.77c0,1.96-.94,2.9-2.89,2.9s-2.96-.93-2.96-2.9,1-2.96,2.96-2.96,2.89,1.02,2.89,2.96M363.16,83.86c0-1.95-.94-2.88-2.89-2.88s-2.96.93-2.96,2.88,1,2.96,2.96,2.96,2.89-1.01,2.89-2.96M374.07,3.89c0,1.95-.95,2.92-2.9,2.92s-2.97-.97-2.97-2.92,1.02-2.94,2.97-2.94,2.9.99,2.9,2.94M374.07,87.88c0-1.96-.95-2.99-2.9-2.99s-2.97,1.03-2.97,2.99,1.02,2.87,2.97,2.87,2.9-.94,2.9-2.87M378.89,45.82c0,1.95.93,2.89,2.88,2.89s2.97-.94,2.97-2.89-1.02-2.96-2.97-2.96-2.88,1.02-2.88,2.96M379.91,2.94c0,1.95,1,2.9,2.95,2.9s2.92-.95,2.92-2.9-.97-2.94-2.92-2.94-2.95,1-2.95,2.94M385.78,88.68c0-1.95-.97-2.97-2.92-2.97s-2.95,1.02-2.95,2.97,1,2.89,2.95,2.89,2.92-.93,2.92-2.89M390.61,45.82c0,1.95.93,2.89,2.87,2.89s2.99-.94,2.99-2.89-1.03-2.96-2.99-2.96-2.87,1.02-2.87,2.96M391.64,3.89c0,1.95.96,2.92,2.92,2.92s2.94-.97,2.94-2.92-1-2.94-2.94-2.94-2.92.99-2.92,2.94M391.64,87.88c0-1.96.96-2.99,2.92-2.99s2.94,1.03,2.94,2.99-1,2.87-2.94,2.87-2.92-.94-2.92-2.87M402.32,45.82c0,1.95.94,2.89,2.88,2.89s2.98-.94,2.98-2.89-1.03-2.96-2.98-2.96-2.88,1.02-2.88,2.96M402.54,7.77c0,1.96.94,2.9,2.89,2.9s2.98-.93,2.98-2.9-1.03-2.96-2.98-2.96-2.89,1.02-2.89,2.96M402.54,83.86c0-1.95.94-2.88,2.89-2.88s2.98.93,2.98,2.88-1.03,2.96-2.98,2.96-2.89-1.01-2.89-2.96M412.1,14.51c0,1.96,1.02,2.97,2.97,2.97s2.89-1.02,2.89-2.97-.93-2.88-2.89-2.88-2.97.94-2.97,2.88M412.1,77.09c0-1.96,1.02-2.94,2.97-2.94s2.89.98,2.89,2.94-.93,2.92-2.89,2.92-2.97-.97-2.97-2.92M414.04,45.82c0,1.95.93,2.89,2.89,2.89s2.96-.94,2.96-2.89-1.02-2.96-2.96-2.96-2.89,1.02-2.89,2.96M419.54,68.07c0-1.96.93-2.96,2.87-2.96s2.98,1.01,2.98,2.96-1.02,2.89-2.98,2.89-2.87-.94-2.87-2.89M424.06,57.38c0-1.95,1.01-2.88,2.96-2.88s2.89.92,2.89,2.88-.93,2.98-2.89,2.98-2.96-1.03-2.96-2.98M425.73,45.82c0,1.95.96,2.89,2.91,2.89s2.93-.94,2.93-2.89-.97-2.96-2.93-2.96-2.91,1.02-2.91,2.96"/><path d="M432.41,86.9c0-1.95.97-2.89,2.92-2.89s2.92.94,2.92,2.89-.97,2.98-2.92,2.98-2.92-1.03-2.92-2.98M437.92,76.53c0-1.96.93-2.98,2.89-2.98s2.96,1.03,2.96,2.98-1.02,2.89-2.96,2.89-2.89-.94-2.89-2.89M443.42,66.21c0-1.94.96-2.97,2.91-2.97s2.94,1.03,2.94,2.97-.99,2.89-2.94,2.89-2.91-.93-2.91-2.89M448.9,55.91c0-1.95,1.02-2.98,2.97-2.98s2.88,1.03,2.88,2.98-.93,2.88-2.88,2.88-2.97-.92-2.97-2.88M454.4,45.44c0-1.95,1-2.89,2.96-2.89s2.89.93,2.89,2.89-.95,2.97-2.89,2.97-2.96-1.01-2.96-2.97M465.79,55.75c-.08-1.95-1.11-2.89-3.05-2.82-1.95,0-2.88,1.03-2.79,2.98,0,1.96.94,2.88,2.89,2.88,1.95-.08,2.95-1.08,2.95-3.04M459.95,35.13c0-1.95.94-2.88,2.89-2.88s2.95.94,2.95,2.88-1,2.98-2.95,2.98-2.89-1.03-2.89-2.98M465.44,24.82c0-1.95.93-2.89,2.89-2.89s2.97.94,2.97,2.89-1.02,2.97-2.97,2.97-2.89-1.02-2.89-2.97M470.82,14.52c0-1.95.98-2.88,2.94-2.88s2.92.93,2.92,2.88-.97,2.97-2.92,2.97-2.94-1.02-2.94-2.97M476.67,55.75c0-1.95-.97-2.89-2.92-2.82-1.95,0-2.94,1.03-2.94,2.98.06,1.96,1.1,2.88,3.05,2.88,1.95-.08,2.87-1.08,2.8-3.04M482.2,4.14c0-1.95-1.02-2.97-2.96-2.97-1.95.1-2.89,1.09-2.89,3.04.05,1.96,1.09,2.92,3.04,2.83,1.95,0,2.86-.94,2.82-2.9M487.69,14.45c0-1.95-.99-2.93-2.94-2.81-1.95,0-2.92.93-2.92,2.88.1,1.95,1.09,2.97,3.04,2.97,1.96-.11,2.91-1.09,2.82-3.04M487.69,55.75c0-1.95-.99-2.89-2.94-2.82-1.95,0-2.92,1.03-2.92,2.98.1,1.96,1.09,2.88,3.04,2.88,1.96-.08,2.91-1.08,2.82-3.04M493.17,24.76c0-1.95-.95-2.92-2.9-2.82-1.95,0-2.96.94-2.96,2.89.1,1.95,1.09,2.97,3.04,2.97,1.96-.09,2.93-1.09,2.82-3.04M498.66,35.13c0-1.95-.93-2.88-2.88-2.88-1.95.03-2.96,1.09-2.96,3.04.08,1.95,1.11,2.84,3.05,2.83,1.95,0,2.9-1.03,2.79-2.98M498.66,55.75c0-1.95-.93-2.89-2.88-2.82-1.95,0-2.96,1.03-2.96,2.98.08,1.96,1.11,2.88,3.05,2.88,1.95-.08,2.9-1.08,2.79-3.04M504.2,45.44c0-1.95-.99-2.89-2.93-2.89-1.96.02-2.92,1.08-2.92,3.04.03,1.96,1.11,2.84,3.05,2.82,1.95,0,2.84-1.01,2.79-2.97M509.72,55.75c0-1.95-1.02-2.89-2.98-2.82-1.95,0-2.88,1.03-2.88,2.98s.93,2.88,2.88,2.88c1.95-.08,2.98-1.08,2.98-3.04M515.2,66.21c-.1-1.94-1.04-2.97-2.93-2.97s-2.93,1.03-2.93,2.97.98,2.89,2.93,2.89,2.93-.93,2.93-2.89M520.68,76.53c-.06-1.96-1.09-2.98-3.04-2.98-1.95.11-2.87,1.09-2.82,3.04,0,1.96,1.02,2.93,2.98,2.82,1.95,0,2.88-.94,2.88-2.89M526.21,86.83c-.06-1.95-1.11-2.91-3.06-2.81-1.95,0-2.84.94-2.78,2.89,0,1.95.97,2.98,2.92,2.98,1.95-.11,2.92-1.11,2.92-3.05"/><path d="M539.08,4.81c0-1.96,1-2.89,2.95-2.89s2.9.93,2.9,2.89-.95,2.96-2.9,2.96-2.95-1.01-2.95-2.96M542.03,19.47c-1.95,0-2.95-.99-2.95-2.95s1-2.9,2.95-2.9,2.9.95,2.9,2.9-.95,2.95-2.9,2.95M542.03,31.16c-1.95,0-2.95-.97-2.95-2.92s1-2.93,2.95-2.93,2.9.98,2.9,2.93-.95,2.92-2.9,2.92M542.03,42.85c-1.95,0-2.95-.94-2.95-2.89s1-2.96,2.95-2.96,2.9,1.01,2.9,2.96-.95,2.89-2.9,2.89M539.08,51.68c0-1.95,1-2.97,2.95-2.97s2.9,1.02,2.9,2.97-.95,2.89-2.9,2.89-2.95-.94-2.95-2.89M542.03,66.27c-1.95,0-2.95-.92-2.95-2.88s1-2.98,2.95-2.98,2.9,1.03,2.9,2.98-.95,2.88-2.9,2.88M542.03,78c-1.95,0-2.95-.92-2.95-2.88s1-2.98,2.95-2.98,2.9,1.03,2.9,2.98-.95,2.88-2.9,2.88M539.08,86.83c0-1.95,1-2.97,2.95-2.97s2.9,1.02,2.9,2.97-.95,2.89-2.9,2.89-2.95-.94-2.95-2.89M550.69,51.75c0-1.94.97-2.89,2.93-2.89s2.92.95,2.92,2.89-.97,2.97-2.92,2.97-2.93-1.01-2.93-2.97M550.8,4.81c0-1.96.98-2.89,2.93-2.89s2.93.93,2.93,2.89-.97,2.96-2.93,2.96-2.93-1.01-2.93-2.96M562.39,51.75c0-1.94,1-2.89,2.94-2.89s2.9.95,2.9,2.89-.95,2.97-2.9,2.97-2.94-1.01-2.94-2.97M562.52,4.81c0-1.96.98-2.89,2.93-2.89s2.94.93,2.94,2.89-.98,2.96-2.94,2.96-2.93-1.01-2.93-2.96M570.14,60.58c0-1.95.96-2.97,2.91-2.97s2.94,1.02,2.94,2.97-.98,2.89-2.94,2.89-2.91-.93-2.91-2.89M574.02,51.09c0-1.95.93-2.95,2.89-2.95s2.95,1,2.95,2.95-1,2.89-2.95,2.89-2.89-.93-2.89-2.89M574.09,5.99c0-1.95,1.01-2.93,2.96-2.93s2.89.98,2.89,2.93-.93,2.92-2.89,2.92-2.96-.96-2.96-2.92M577.87,69.32c0-1.95.95-2.89,2.9-2.89s2.96.94,2.96,2.89-1.02,2.98-2.96,2.98-2.9-1.03-2.9-2.98M583.73,12.52c0-1.95.93-2.9,2.89-2.9s2.96.95,2.96,2.9-1.01,2.96-2.96,2.96-2.89-1.01-2.89-2.96M583.82,45c0-1.95,1-2.98,2.96-2.98s2.9,1.03,2.9,2.98-.95,2.89-2.9,2.89-2.96-.92-2.96-2.89M585.58,78.16c0-1.95.98-2.98,2.94-2.98s2.92,1.03,2.92,2.98-.98,2.88-2.92,2.88-2.94-.94-2.94-2.88M588.76,22.82c0-1.95.95-2.89,2.89-2.89s2.96.94,2.96,2.89-1,2.98-2.96,2.98-2.89-1.01-2.89-2.98M588.85,34.54c0-1.95,1.01-2.89,2.97-2.89s2.89.93,2.89,2.89-.95,2.97-2.89,2.97-2.97-1.01-2.97-2.97M593.3,86.83c0-1.95,1-2.97,2.96-2.97s2.89,1.02,2.89,2.97-.95,2.89-2.89,2.89-2.96-.94-2.96-2.89"/><path d="M610.87,45.82c0,1.96-.96,2.89-2.91,2.89s-2.95-.93-2.95-2.89,1-2.96,2.95-2.96,2.91,1.01,2.91,2.96M612.51,34.32c0,1.96-.95,2.96-2.9,2.96s-2.95-1-2.95-2.96,1-2.89,2.95-2.89,2.9.94,2.9,2.89M612.51,57.38c0-1.95-.95-2.88-2.9-2.88s-2.95.93-2.95,2.88,1,2.98,2.95,2.98,2.9-1.02,2.9-2.98M617.11,23.57c0,1.96-1,2.89-2.95,2.89s-2.91-.93-2.91-2.89.96-2.97,2.91-2.97,2.95,1.02,2.95,2.97M617.11,68.07c0-1.95-1-2.96-2.95-2.96s-2.91,1.01-2.91,2.96.96,2.89,2.91,2.89,2.95-.94,2.95-2.89M624.46,14.52c0,1.95-.95,2.97-2.9,2.97s-2.95-1.02-2.95-2.97.99-2.89,2.95-2.89,2.9.94,2.9,2.89M624.46,77.08c0-1.96-.95-2.94-2.9-2.94s-2.95.98-2.95,2.94.99,2.92,2.95,2.92,2.9-.97,2.9-2.92M634.09,7.77c0,1.96-1,2.89-2.95,2.89s-2.9-.93-2.9-2.89.95-2.97,2.9-2.97,2.95,1.02,2.95,2.97M634.09,83.86c0-1.95-1-2.88-2.95-2.88s-2.9.93-2.9,2.88.95,2.97,2.9,2.97,2.95-1.01,2.95-2.97M644.98,3.88c0,1.95-1.01,2.92-2.96,2.92s-2.9-.97-2.9-2.92.94-2.94,2.9-2.94,2.96.99,2.96,2.94M644.98,87.88c0-1.95-1.01-2.98-2.96-2.98s-2.9,1.03-2.9,2.98.94,2.88,2.9,2.88,2.96-.94,2.96-2.88M650.83,2.94c0,1.95.96,2.9,2.91,2.9s2.96-.94,2.96-2.9S655.7,0,653.74,0s-2.91.99-2.91,2.94M656.69,88.68c0-1.96-.99-2.97-2.96-2.97s-2.91,1.02-2.91,2.97.96,2.89,2.91,2.89,2.96-.94,2.96-2.89M662.54,3.88c0,1.95.97,2.92,2.92,2.92s2.93-.97,2.93-2.92-.98-2.94-2.93-2.94-2.92.99-2.92,2.94M662.54,87.88c0-1.95.97-2.98,2.92-2.98s2.93,1.03,2.93,2.98-.98,2.88-2.93,2.88-2.92-.94-2.92-2.88M673.43,7.77c0,1.96.97,2.89,2.93,2.89s2.92-.93,2.92-2.89-.97-2.97-2.92-2.97-2.93,1.02-2.93,2.97M673.43,83.86c0-1.95.97-2.88,2.93-2.88s2.92.93,2.92,2.88-.97,2.97-2.92,2.97-2.93-1.01-2.93-2.97"/><path d="M698.15,1.92c1.95,0,2.91.94,2.91,2.89s-.96,2.97-2.91,2.97-2.94-1.02-2.94-2.97.99-2.89,2.94-2.89M701.06,16.52c0,1.96-.96,2.95-2.91,2.95s-2.94-.99-2.94-2.95.99-2.89,2.94-2.89,2.91.94,2.91,2.89M701.06,28.24c0,1.95-.96,2.92-2.91,2.92s-2.94-.97-2.94-2.92.99-2.93,2.94-2.93,2.91.97,2.91,2.93M698.15,37.01c1.95,0,2.91,1,2.91,2.95s-.96,2.9-2.91,2.9-2.94-.94-2.94-2.9.99-2.95,2.94-2.95M701.06,51.67c0,1.96-.96,2.89-2.91,2.89s-2.94-.93-2.94-2.89.99-2.97,2.94-2.97,2.91,1.02,2.91,2.97M701.06,63.4c0,1.96-.96,2.88-2.91,2.88s-2.94-.92-2.94-2.88.99-2.98,2.94-2.98,2.91,1.03,2.91,2.98M701.06,75.12c0,1.95-.96,2.88-2.91,2.88s-2.94-.93-2.94-2.88.99-2.98,2.94-2.98,2.91,1.02,2.91,2.98M698.15,83.86c1.95,0,2.91,1.02,2.91,2.97s-.96,2.89-2.91,2.89-2.94-.95-2.94-2.89.99-2.97,2.94-2.97"/><path d="M713.96,86.9c0-1.95.97-2.89,2.92-2.89s2.94.94,2.94,2.89-.98,2.98-2.94,2.98-2.92-1.03-2.92-2.98M719.46,76.53c0-1.96.98-2.98,2.92-2.98s2.94,1.03,2.94,2.98-.97,2.89-2.94,2.89-2.92-.94-2.92-2.89M724.95,66.21c0-1.94.99-2.97,2.94-2.97s2.91,1.03,2.91,2.97-.96,2.89-2.91,2.89-2.94-.93-2.94-2.89M730.46,55.91c0-1.95.98-2.98,2.93-2.98s2.94,1.03,2.94,2.98-.98,2.88-2.94,2.88-2.93-.92-2.93-2.88M735.97,45.44c0-1.95.96-2.89,2.91-2.89s2.96.93,2.96,2.89-1,2.97-2.96,2.97-2.91-1.01-2.91-2.97M747.34,55.75c-.09-1.95-1.09-2.89-3.04-2.82-1.96,0-2.91,1.03-2.82,2.98,0,1.96.98,2.88,2.93,2.88,1.95-.08,2.93-1.08,2.93-3.04M741.48,35.13c0-1.95.98-2.88,2.93-2.88s2.93.94,2.93,2.88-.98,2.98-2.93,2.98-2.93-1.03-2.93-2.98M746.97,24.82c0-1.95,1-2.89,2.95-2.89s2.91.94,2.91,2.89-.97,2.97-2.91,2.97-2.95-1.02-2.95-2.97M752.37,14.52c0-1.95.97-2.88,2.93-2.88s2.93.93,2.93,2.88-.98,2.97-2.93,2.97-2.93-1.02-2.93-2.97M758.22,55.75c0-1.95-.98-2.89-2.93-2.82-1.95,0-2.93,1.03-2.93,2.98.08,1.96,1.1,2.88,3.05,2.88,1.95-.08,2.89-1.08,2.8-3.04M763.73,4.14c0-1.95-.97-2.97-2.92-2.97-1.95.1-2.93,1.09-2.93,3.04.08,1.96,1.09,2.92,3.04,2.83,1.95,0,2.89-.94,2.81-2.9M769.22,14.45c0-1.95-.96-2.93-2.92-2.81-1.96,0-2.94.93-2.94,2.88.08,1.95,1.1,2.97,3.05,2.97,1.94-.11,2.89-1.09,2.8-3.04M769.22,55.75c0-1.95-.96-2.89-2.92-2.82-1.96,0-2.94,1.03-2.94,2.98.08,1.96,1.1,2.88,3.05,2.88,1.94-.08,2.89-1.08,2.8-3.04M774.74,24.76c0-1.95-.97-2.92-2.93-2.82-1.95,0-2.91.94-2.91,2.89.06,1.95,1.09,2.97,3.03,2.97,1.95-.09,2.87-1.09,2.81-3.04M780.25,35.13c0-1.95-.99-2.88-2.95-2.88-1.95.03-2.91,1.09-2.91,3.04.08,1.95,1.09,2.84,3.05,2.83,1.95,0,2.88-1.03,2.81-2.98M780.25,55.75c0-1.95-.99-2.89-2.95-2.82-1.95,0-2.91,1.03-2.91,2.98.08,1.96,1.09,2.88,3.05,2.88,1.95-.08,2.88-1.08,2.81-3.04M785.75,45.44c0-1.95-.98-2.89-2.94-2.89-1.94.02-2.92,1.08-2.92,3.04.08,1.96,1.09,2.84,3.04,2.82,1.95,0,2.88-1.01,2.82-2.97M791.25,55.75c0-1.95-.97-2.89-2.93-2.82-1.95,0-2.93,1.03-2.93,2.98s.98,2.88,2.93,2.88c1.95-.08,2.93-1.08,2.93-3.04M796.76,66.21c-.08-1.94-1.06-2.97-2.94-2.97s-2.91,1.03-2.91,2.97.97,2.89,2.91,2.89,2.94-.93,2.94-2.89M802.27,76.53c-.09-1.96-1.09-2.98-3.04-2.98-1.95.11-2.9,1.09-2.82,3.04,0,1.96.97,2.93,2.93,2.82,1.95,0,2.94-.94,2.94-2.89M807.76,86.83c-.08-1.95-1.09-2.91-3.05-2.81-1.95,0-2.88.94-2.82,2.89,0,1.95,1,2.98,2.94,2.98,1.95-.11,2.93-1.11,2.93-3.05"/></g></svg>