<?xml version="1.0" encoding="UTF-8"?> <svg xmlns="http://www.w3.org/2000/svg" xmlns:xlink="http://www.w3.org/1999/xlink" version="1.1" id="Layer_2_00000124136547033117146790000005233643454444231811_" x="0px" y="0px" viewBox="0 0 561.2 189.9" style="enable-background:new 0 0 561.2 189.9;" xml:space="preserve"> <style type="text/css"> .st0{fill:#414042;} .st1{fill:#414042;stroke:#414042;stroke-width:1.01;stroke-miterlimit:10;} </style> <g id="Layer_1-2"> <g> <path class="st0" d="M115.9,135.4c-2.5,2.5-4.6,3.7-6.2,3.6c-0.8-0.1-1.4-0.6-1.9-1.5s-0.7-1.8-0.7-2.9c-0.3-2.5,0.4-5.2,2.1-8 c1.7-2.8,3.9-4.7,6.7-5.8c1.5-0.5,3-0.7,4.7-0.5s3.3,0.9,4.9,2.1l2.6-4c0.3-0.3,0.7-0.3,1.2-0.2c0.5,0.1,0.7,0.3,0.4,0.6 c-0.7,1.1-1.5,2.6-2.5,4.5c-1,1.9-1.9,4-2.8,6.2c-0.9,2.2-1.6,4.4-2.2,6.6s-0.8,4.1-0.5,5.7c0.3,1.9,1,3,2.2,3.3 c1.2,0.3,2.6,0.3,4.2-0.1c2.4-0.5,5.2-1.7,8.6-3.5c3.3-1.8,6.7-3.8,10.1-6.1s6.6-4.5,9.8-6.8c3.1-2.3,5.7-4.2,7.9-5.8 c0.3-0.3,0.5-0.3,0.8,0c0.3,0.3,0.1,0.5-0.4,0.8c-2.3,1.6-4.9,3.6-8,5.9s-6.3,4.6-9.7,6.8s-6.7,4.1-10,5.9 c-3.3,1.7-6.1,2.9-8.7,3.6c-2,0.5-3.7,0.6-5,0.1c-1.3-0.5-2.3-1.7-2.8-3.7c-0.5-1.9-0.4-4.4,0.4-7.5s1.7-6,2.8-8.7 c-1.1,1.3-2.4,3-4,5C118.3,133,117,134.5,115.9,135.4L115.9,135.4z M124.9,123.3c-2.7-2-5.3-2.5-8-1.6c-1.9,0.7-3.5,1.9-5,3.8 c-1.5,1.9-2.5,3.9-3,6.2c-0.4,1.3-0.6,2.7-0.6,4.1s0.5,2.2,1.6,2.5c1.5,0.3,3.4-1,6-3.8c1.6-1.9,3.2-3.8,4.9-5.8 C122.5,126.7,123.8,124.9,124.9,123.3L124.9,123.3z"></path> <path class="st0" d="M161.4,146.6c5,7.6,8,14.4,8.9,20.5s0.6,11.1-0.9,14.9c-0.9,2.5-2.1,4.4-3.6,5.8c-1.5,1.3-3,2-4.5,2.1 c-1.5,0.1-2.9-0.5-4.3-1.7c-1.3-1.2-2.4-3.1-3.2-5.6c-1.2-3.7-1.5-8.4-0.9-13.9c0.6-5.6,1.6-11.3,2.9-17.1 c1.3-5.8,2.8-11.4,4.5-16.8s3.1-9.7,4.3-12.8c2-5.2,4.3-10.8,7-16.9s5.6-12.2,9-18.1c3.3-6,7-11.6,11-16.7c4-5.2,8.3-9.5,12.9-13 c2.5-1.9,4.9-3.1,7.1-3.7s4-0.6,5.5,0c1.5,0.6,2.4,1.9,2.8,3.8s0,4.5-1.2,7.9c-1.1,3.1-2.8,6.6-5.3,10.7 c-2.5,4.1-5.8,8.5-10.1,13.4s-9.4,10.2-15.5,15.9c-6.1,5.7-13.4,11.8-21.7,18.1c-1.2,3.3-2.7,7.6-4.4,12.7s-3.2,10.6-4.6,16.2 c-1.3,5.6-2.3,11.1-2.8,16.5s-0.3,9.9,0.8,13.6c1.5,4.8,3.6,7,6.6,6.8c2.9-0.3,5.2-2.8,7-7.6c1.5-3.9,1.7-8.8,0.8-14.8 c-0.9-6-3.9-12.8-9-20.2c0-0.5,0.1-0.8,0.4-0.8c4.9-0.4,9.5-1.2,13.8-2.3c4.3-1.1,8.6-2.6,12.8-4.5c4.2-1.9,8.4-4.1,12.6-6.8 c4.2-2.6,8.9-5.8,13.9-9.4c0.4-0.3,0.7-0.3,0.9,0c0.2,0.3,0,0.5-0.5,0.8c-9,6.6-17.7,11.9-26.1,15.9 C179.9,143.6,170.9,145.9,161.4,146.6L161.4,146.6z M166.5,121.5c16.1-12.2,28.1-23.2,36.2-33c8-9.8,13.1-17.6,15-23.6 c1.2-3.2,1.6-5.7,1.2-7.5s-1.2-2.9-2.5-3.4c-1.3-0.5-2.9-0.4-4.9,0.3c-2,0.7-4.1,1.8-6.2,3.4c-4.5,3.3-8.7,7.6-12.6,12.8 s-7.4,10.7-10.8,16.5c-3.3,5.8-6.3,11.8-8.9,17.8S168.4,116.4,166.5,121.5L166.5,121.5z"></path> <path class="st0" d="M230.7,84.6c-3.2,6.4-6.2,13.1-9.1,20c-2.9,7-5.1,13.5-6.9,19.6c-2.3,8.9-3.2,15.4-2.7,19.4 c0.5,4.1,2,6.3,4.7,6.7c2.5,0.4,5.9-0.5,10.3-2.7c4.3-2.2,8.8-4.8,13.4-7.9c4.6-3.1,9-6.2,13.1-9.4c4.2-3.2,7.5-5.7,9.9-7.6 c0.3-0.3,0.6-0.3,0.9-0.1c0.3,0.2,0.2,0.5-0.5,0.9c-2.4,1.9-5.7,4.4-9.9,7.6c-4.2,3.2-8.6,6.3-13.2,9.4c-4.6,3.1-9.1,5.7-13.4,7.9 c-4.3,2.2-7.8,3.1-10.5,2.7c-3.1-0.4-4.9-2.7-5.7-7s0-11,2.3-20.3c1.7-6,4-12.5,6.8-19.5c2.8-7,5.7-13.7,8.8-19.9 c-3.7-0.3-7.3-0.4-10.7-0.5s-6.4,0-9,0.3c-2.6,0.3-4.6,0.8-6.2,1.7c-1.5,0.9-2.4,2-2.5,3.5c-0.1,0.7-0.5,0.9-1,0.8 c-0.5-0.1-0.7-0.5-0.4-1.2c0.5-1.6,1.7-2.8,3.6-3.7c1.9-0.9,4.1-1.5,6.9-1.8s5.8-0.5,9.2-0.4c3.4,0.1,6.9,0.2,10.7,0.5 c1.9-3.7,3.5-6.8,4.9-9.2c1.4-2.4,2.4-4.1,3.1-5c0.3-0.3,0.6-0.3,1-0.2c0.4,0.1,0.5,0.4,0.2,0.8c-0.8,1.5-1.8,3.3-3.1,5.6 s-2.8,5-4.5,8.2c6.8,0.7,13.3,1.2,19.6,1.6c6.3,0.4,12,0.5,17,0.4c5-0.1,9.2-0.6,12.5-1.3c3.3-0.7,5.4-2,6.2-3.7 c0.1-0.3,0.4-0.3,0.8-0.2c0.4,0.1,0.4,0.5,0,1c-1.2,1.7-3.6,3-7.3,3.7s-8.1,1.2-13.2,1.3s-10.9,0-17.1-0.4S237,85.3,230.7,84.6 L230.7,84.6z"></path> <path class="st0" d="M271.5,119.7c0.9,0.3,1.5,0.8,1.6,1.6c0.1,0.8-0.5,1.5-1.8,2.2c-0.8,0.3-1.8,0.5-2.9,0.7s-2.5,0.2-4.1-0.1 c-0.8,1.1-1.5,2.3-2.2,3.7c-0.7,1.4-1.2,2.9-1.6,4.4c-0.4,1.5-0.5,3-0.4,4.5c0.1,1.5,0.6,2.7,1.4,3.6c0.9,1.2,2.2,1.9,3.9,2.2 c1.7,0.3,3.4,0.3,5.3,0.1s3.7-0.6,5.5-1.1c1.8-0.5,3.4-1.1,4.7-1.6c5-2.1,10.1-4.8,15-8.1c5-3.2,9.1-6.2,12.2-8.9 c0.3-0.3,0.6-0.3,0.9-0.1c0.3,0.2,0.2,0.5-0.5,0.9c-1.6,1.2-3.4,2.6-5.5,4.1c-2.1,1.5-4.3,3.1-6.7,4.6c-2.4,1.5-4.9,3-7.5,4.4 s-5.1,2.6-7.7,3.7c-2,0.8-4.2,1.5-6.8,2.2c-2.5,0.7-4.9,1-7.1,0.9c-2.2-0.1-4.1-0.6-5.8-1.7s-2.7-2.8-3.1-5.2s-0.1-5,1-7.8 s2.4-4.9,4-6.4c1.1-0.9,2.3-1.7,3.7-2.3S270.1,119.4,271.5,119.7L271.5,119.7z M265.1,123.3c2.5,0.4,4.5,0.3,5.8-0.4 c1.1-0.5,1.6-1.1,1.5-1.7c-0.1-0.6-0.6-0.9-1.7-0.9c-0.9,0-1.9,0.2-3,0.7C266.7,121.5,265.8,122.2,265.1,123.3z"></path> <path class="st0" d="M307,120.7c-0.7-2.3-0.1-4.2,1.6-6c0.9-1.1,2.1-1.7,3.4-1.8c1.3-0.1,2.3,0.2,2.9,0.9s0.6,1.9-0.1,3.4 c-0.7,1.5-2.4,3.4-5.2,5.7c1.6,1.5,2.8,2.4,3.5,2.8c0.7,0.4,0.8,1.5,0.1,3.2c-0.4,1.1-0.9,2.4-1.6,4.1c-0.7,1.7-1.1,3.3-1.3,4.9 c-0.2,1.6-0.1,3.1,0.2,4.4c0.3,1.3,1.3,2.3,2.9,2.8c2.3,0.7,5.3,0.1,9.3-1.7c3.9-1.8,8-4,12.1-6.7s8.1-5.3,11.6-8 c3.6-2.7,6.2-4.6,7.8-5.8c0.3-0.3,0.6-0.3,0.9-0.1c0.3,0.2,0.2,0.5-0.5,0.9c-1.6,1.2-4.2,3.2-7.9,5.9s-7.6,5.4-11.8,8.1 s-8.3,4.9-12.4,6.7c-4,1.8-7.3,2.3-9.7,1.5c-1.9-0.5-3.1-1.5-3.6-2.9c-0.5-1.4-0.7-2.9-0.6-4.6s0.5-3.4,1.1-5.2s1.1-3.3,1.5-4.5 c0.3-0.7,0.4-1.2,0.4-1.6s-0.2-0.9-0.6-1.4c-1.1-0.9-2-1.7-2.7-2.3S307.2,121.9,307,120.7L307,120.7z M308.8,122.3 c2.7-2.1,4.3-3.8,5-5.2c0.7-1.3,0.8-2.3,0.4-2.8s-1.1-0.7-2.2-0.4c-1.1,0.3-2,0.9-2.8,1.8c-0.7,0.9-1.1,2-1.3,3.3 C307.7,120.2,308,121.3,308.8,122.3L308.8,122.3z"></path> <path class="st0" d="M363.5,123.5c0,0.4-0.2,0.7-0.7,0.8c-0.5,0.1-0.6-0.1-0.5-0.8c0.1-1.6-0.5-2.3-2-2.1 c-1.5,0.2-2.7,0.6-3.8,1.3c-1.5,0.9-2.8,2.2-4,3.8s-2.1,3.3-2.7,5.1c-0.6,1.8-0.9,3.6-0.9,5.3s0.5,3.1,1.4,4.2 c1.2,1.3,2.9,2.1,5,2.2c2.1,0.1,4.4-0.1,6.8-0.6c2.4-0.5,4.8-1.3,7.1-2.2c2.3-0.9,4.4-1.8,6.1-2.6c2-0.9,4-2,6.2-3.2 c2.1-1.2,4.2-2.5,6.3-3.8c2.1-1.3,4-2.7,6-4.1c1.9-1.4,3.6-2.7,5.1-3.9c0.3-0.3,0.6-0.3,0.9-0.1c0.3,0.2,0.2,0.5-0.5,0.9 c-3.9,2.9-7.7,5.7-11.6,8.3c-3.9,2.6-7.9,4.8-12,6.7c-2,0.9-4.2,1.9-6.6,2.8s-4.8,1.7-7.2,2.2s-4.6,0.7-6.8,0.5s-3.9-1-5.2-2.3 c-1.9-1.7-2.6-4.1-2.3-7.3c0.3-3.1,1.4-5.9,3.3-8.5c1.1-1.3,2.4-2.6,3.9-3.7c1.5-1.1,3.2-1.7,5.1-1.7 C361.7,120.7,363,121.6,363.5,123.5L363.5,123.5z"></path> <path class="st0" d="M402,135.4c-2.5,2.5-4.6,3.7-6.2,3.6c-0.8-0.1-1.4-0.6-1.9-1.5c-0.5-0.9-0.7-1.8-0.7-2.9 c-0.3-2.5,0.4-5.2,2.1-8c1.7-2.8,3.9-4.7,6.7-5.8c1.5-0.5,3-0.7,4.7-0.5s3.3,0.9,4.9,2.1l2.6-4c0.3-0.3,0.7-0.3,1.2-0.2 c0.5,0.1,0.7,0.3,0.4,0.6c-0.7,1.1-1.5,2.6-2.5,4.5c-1,1.9-1.9,4-2.8,6.2c-0.9,2.2-1.6,4.4-2.2,6.6s-0.8,4.1-0.5,5.7 c0.3,1.9,1,3,2.2,3.3c1.2,0.3,2.6,0.3,4.2-0.1c2.4-0.5,5.2-1.7,8.6-3.5c3.3-1.8,6.7-3.8,10.1-6.1c3.4-2.3,6.6-4.5,9.8-6.8 c3.1-2.3,5.7-4.2,7.9-5.8c0.3-0.3,0.5-0.3,0.8,0c0.3,0.3,0.1,0.5-0.4,0.8c-2.3,1.6-4.9,3.6-8,5.9s-6.3,4.6-9.7,6.8 s-6.7,4.1-10,5.9c-3.3,1.7-6.1,2.9-8.7,3.6c-2,0.5-3.6,0.6-5,0.1c-1.3-0.5-2.3-1.7-2.8-3.7c-0.5-1.9-0.4-4.4,0.4-7.5 s1.7-6,2.8-8.7c-1.1,1.3-2.4,3-4,5C404.4,133,403,134.5,402,135.4L402,135.4z M410.9,123.3c-2.7-2-5.3-2.5-8-1.6 c-1.9,0.7-3.5,1.9-5,3.8c-1.5,1.9-2.5,3.9-3,6.2c-0.4,1.3-0.6,2.7-0.6,4.1s0.5,2.2,1.6,2.5c1.5,0.3,3.5-1,6-3.8 c1.6-1.9,3.2-3.8,4.9-5.8C408.5,126.7,409.9,124.9,410.9,123.3L410.9,123.3z"></path> <path class="st0" d="M449.2,120.7c-0.7-2.3-0.1-4.2,1.6-6c0.9-1.1,2.1-1.7,3.4-1.8c1.3-0.1,2.3,0.2,2.9,0.9s0.6,1.9-0.1,3.4 c-0.7,1.5-2.4,3.4-5.2,5.7c1.6,1.5,2.8,2.4,3.5,2.8c0.7,0.4,0.8,1.5,0.1,3.2c-0.4,1.1-0.9,2.4-1.6,4.1c-0.7,1.7-1.1,3.3-1.3,4.9 c-0.2,1.6-0.1,3.1,0.2,4.4c0.3,1.3,1.3,2.3,2.9,2.8c2.3,0.7,5.3,0.1,9.3-1.7c3.9-1.8,8-4,12.1-6.7s8.1-5.3,11.6-8 c3.6-2.7,6.2-4.6,7.8-5.8c0.3-0.3,0.6-0.3,0.9-0.1c0.3,0.2,0.2,0.5-0.5,0.9c-1.6,1.2-4.2,3.2-7.9,5.9s-7.6,5.4-11.8,8.1 s-8.3,4.9-12.4,6.7c-4,1.8-7.3,2.3-9.7,1.5c-1.9-0.5-3.1-1.5-3.6-2.9c-0.5-1.4-0.7-2.9-0.6-4.6s0.5-3.4,1.1-5.2s1.1-3.3,1.5-4.5 c0.3-0.7,0.4-1.2,0.4-1.6s-0.2-0.9-0.6-1.4c-1.1-0.9-2-1.7-2.7-2.3S449.4,121.9,449.2,120.7L449.2,120.7z M451,122.3 c2.7-2.1,4.3-3.8,5-5.2c0.7-1.3,0.8-2.3,0.4-2.8s-1.1-0.7-2.2-0.4c-1.1,0.3-2,0.9-2.8,1.8c-0.7,0.9-1.1,2-1.3,3.3 C449.9,120.2,450.2,121.3,451,122.3L451,122.3z"></path> <path class="st0" d="M504.5,119.7c0.9,0.3,1.5,0.8,1.6,1.6c0.1,0.8-0.5,1.5-1.8,2.2c-0.8,0.3-1.8,0.5-2.9,0.7s-2.5,0.2-4.1-0.1 c-0.8,1.1-1.5,2.3-2.2,3.7c-0.7,1.4-1.2,2.9-1.6,4.4c-0.4,1.5-0.5,3-0.4,4.5c0.1,1.5,0.6,2.7,1.4,3.6c0.9,1.2,2.2,1.9,3.9,2.2 c1.7,0.3,3.4,0.3,5.3,0.1s3.7-0.6,5.5-1.1c1.8-0.5,3.4-1.1,4.7-1.6c5-2.1,10.1-4.8,15-8.1c5-3.2,9.1-6.2,12.2-8.9 c0.3-0.3,0.6-0.3,0.9-0.1c0.3,0.2,0.2,0.5-0.5,0.9c-1.6,1.2-3.4,2.6-5.5,4.1c-2.1,1.5-4.3,3.1-6.7,4.6c-2.4,1.5-4.9,3-7.5,4.4 s-5.2,2.6-7.7,3.7c-2,0.8-4.2,1.5-6.8,2.2c-2.5,0.7-4.9,1-7.1,0.9c-2.2-0.1-4.1-0.6-5.8-1.7s-2.7-2.8-3.1-5.2s-0.1-5,1-7.8 s2.4-4.9,4-6.4c1.1-0.9,2.3-1.7,3.7-2.3S503.1,119.4,504.5,119.7L504.5,119.7z M498.2,123.3c2.5,0.4,4.5,0.3,5.8-0.4 c1.1-0.5,1.6-1.1,1.5-1.7c-0.1-0.6-0.6-0.9-1.7-0.9c-0.9,0-1.9,0.2-3,0.7C499.7,121.5,498.8,122.2,498.2,123.3z"></path> </g> <g> <path class="st1" d="M2.5,3.9c1-0.1,1.9,0.5,2,1.5c0,0.2,0,0.3,0,0.5c0.1,1-0.6,1.9-1.6,2c-0.1,0-0.3,0-0.4,0 c-1,0.1-1.9-0.6-2-1.6c0-0.1,0-0.3,0-0.4C0.4,5,1,4.1,2,3.9C2.2,3.9,2.4,3.9,2.5,3.9 M4.5,14C4.7,15,4,15.9,3,16 c-0.2,0-0.3,0-0.5,0c-1,0.1-1.9-0.6-2-1.5c0-0.2,0-0.3,0-0.5C0.4,13,1,12.1,2,12c0.2,0,0.3,0,0.5,0c1-0.1,1.9,0.5,2,1.5 C4.6,13.6,4.6,13.8,4.5,14 M4.5,22c0.1,1-0.5,1.9-1.5,2c-0.2,0-0.3,0-0.5,0c-1.1,0-2-0.9-2-2s0.9-2,2-2c1-0.1,1.9,0.6,2,1.5 C4.6,21.7,4.6,21.9,4.5,22 M2.5,28.1c1.1,0,2,0.9,2,2s-0.9,2-2,2s-2-0.9-2-2S1.4,28.1,2.5,28.1 M4.5,38.1c0.2,1-0.5,1.9-1.4,2 c-0.2,0-0.4,0-0.6,0c-1,0.1-1.9-0.5-2-1.5c0-0.2,0-0.3,0-0.5c-0.1-1,0.6-1.9,1.6-2c0.1,0,0.3,0,0.4,0c1-0.1,1.9,0.6,2,1.6 C4.6,37.9,4.6,38,4.5,38.1 M4.6,46.2c0.2,1-0.5,1.9-1.4,2c-0.2,0-0.4,0-0.6,0c-1,0.1-1.9-0.5-2-1.5c0-0.2,0-0.3,0-0.5 c-0.1-1,0.6-1.9,1.6-2c0.1,0,0.3,0,0.4,0c1-0.1,1.9,0.6,2,1.6C4.6,45.9,4.6,46.1,4.6,46.2 M4.6,54.3c0.2,1-0.5,1.9-1.4,2 c-0.2,0-0.4,0-0.6,0c-1,0.1-1.9-0.5-2-1.5c0-0.2,0-0.3,0-0.5c-0.1-1,0.6-1.9,1.6-2c0.1,0,0.3,0,0.4,0c1-0.1,1.9,0.6,2,1.6 C4.6,54,4.6,54.1,4.6,54.3 M2.6,60.3c1-0.1,1.9,0.6,2,1.6c0,0.1,0,0.3,0,0.4c0.2,1-0.5,1.9-1.4,2c-0.2,0-0.4,0-0.6,0 c-1,0.1-1.9-0.5-2-1.5c0-0.2,0-0.3,0-0.5c-0.1-1,0.6-1.9,1.6-2C2.3,60.3,2.4,60.3,2.6,60.3 M7.6,10c1-0.1,1.9,0.6,2,1.6 c0,0.1,0,0.3,0,0.4c0.1,1-0.5,1.9-1.5,2c-0.2,0-0.3,0-0.5,0c-0.9,0.2-1.9-0.5-2-1.4c0-0.2,0-0.4,0-0.6c-0.1-1,0.6-1.9,1.6-2 C7.3,10,7.4,10,7.6,10 M12.7,16.7c1-0.1,1.9,0.5,2,1.5c0,0.2,0,0.4,0,0.5c0.1,1-0.6,1.9-1.5,2c-0.2,0-0.3,0-0.5,0 c-1,0.1-1.9-0.6-2-1.6c0-0.1,0-0.3,0-0.4c-0.1-1,0.5-1.9,1.5-2C12.4,16.6,12.6,16.6,12.7,16.7 M17.7,23c1-0.2,1.9,0.5,2,1.4 c0,0.2,0,0.4,0,0.6c0.1,1-0.6,1.9-1.6,2c-0.1,0-0.3,0-0.4,0c-1,0.1-1.9-0.6-2-1.6c0-0.1,0-0.3,0-0.4c-0.1-1,0.5-1.9,1.5-2 C17.3,22.9,17.5,22.9,17.7,23 M22.8,29.3c1-0.1,1.9,0.6,2,1.5c0,0.2,0,0.3,0,0.5c0.1,1-0.6,1.9-1.6,2c-0.1,0-0.3,0-0.4,0 c-1,0.1-1.9-0.6-2-1.6c0-0.1,0-0.3,0-0.4c-0.1-1,0.6-1.9,1.5-2C22.5,29.2,22.6,29.2,22.8,29.3 M27.9,35.6c1-0.1,1.9,0.6,2,1.6 c0,0.1,0,0.3,0,0.4c0.1,1-0.5,1.9-1.5,2c-0.2,0-0.4,0-0.5,0c-1,0.1-1.9-0.5-2-1.5c0-0.2,0-0.3,0-0.5c-0.1-1,0.6-1.9,1.6-2 C27.6,35.6,27.7,35.6,27.9,35.6 M32.8,29.3c-1-0.1-1.9,0.6-2,1.5c0,0.2,0,0.3,0,0.5c0,1.1,0.9,2,2,2s2-0.9,2-2 S33.9,29.3,32.8,29.3 M37.9,23c-1-0.2-1.9,0.5-2,1.4c0,0.2,0,0.4,0,0.6c0,1.1,0.9,2,2,2s2-0.9,2-2c0.1-1-0.5-1.9-1.5-2 C38.2,22.9,38,22.9,37.9,23 M42.9,16.7c-1-0.1-1.9,0.5-2,1.5c0,0.2,0,0.4,0,0.5c0,1.1,0.9,2,2,2s2-0.9,2-2c0.2-1-0.5-1.9-1.4-2 C43.3,16.6,43.1,16.6,42.9,16.7 M47.9,10.3c-1-0.1-1.9,0.6-2,1.6c0,0.1,0,0.3,0,0.4c0,1.1,0.9,2,2,2s2-0.9,2-2 c0.1-1-0.6-1.9-1.6-2C48.2,10.3,48.1,10.3,47.9,10.3 M52.9,3.9c-1-0.1-1.9,0.5-2,1.5c0,0.2,0,0.3,0,0.5c0,1.1,0.9,2,2,2s2-0.9,2-2 c0.1-1-0.6-1.9-1.5-2C53.3,3.9,53.1,3.9,52.9,3.9"></path> <path class="st1" d="M66.7,3.9c1-0.1,1.9,0.6,2,1.5c0,0.2,0,0.3,0,0.5c0,1.1-0.9,2-2,2s-2-0.9-2-2c-0.1-1,0.6-1.9,1.5-2 C66.4,3.9,66.5,3.9,66.7,3.9 M68.7,14c0,1.1-0.9,2-2,2s-2-0.9-2-2s0.9-2,2-2c1-0.1,1.9,0.6,2,1.6C68.7,13.7,68.7,13.9,68.7,14 M68.7,22.1c0,1.1-0.9,2-2,2s-2-0.9-2-2s0.9-2,2-2c1-0.1,1.9,0.6,2,1.5C68.7,21.7,68.7,21.9,68.7,22.1 M66.7,28.1c1.1,0,2,0.9,2,2 s-0.9,2-2,2s-2-0.9-2-2c-0.1-1,0.6-1.9,1.6-2C66.4,28.1,66.5,28.1,66.7,28.1 M68.7,38.2c0,1.1-0.9,2-2,2s-2-0.9-2-2s0.9-2,2-2 S68.7,37.1,68.7,38.2 M68.7,46.2c0,1.1-0.9,2-2,2s-2-0.9-2-2s0.9-2,2-2S68.7,45.1,68.7,46.2 M68.7,54.3c0,1.1-0.9,2-2,2 s-2-0.9-2-2s0.9-2,2-2S68.7,53.2,68.7,54.3 M66.7,60.3c1-0.1,1.9,0.6,2,1.6c0,0.1,0,0.3,0,0.4c0,1.1-0.9,2-2,2s-2-0.9-2-2 c-0.1-1,0.6-1.9,1.6-2C66.4,60.3,66.6,60.3,66.7,60.3 M74.7,3.5c1-0.1,1.9,0.5,2,1.5c0,0.2,0,0.3,0,0.5c0,1.1-0.9,2-2,2 s-2-0.9-2-2c-0.1-1,0.6-1.9,1.5-2C74.4,3.5,74.6,3.5,74.7,3.5 M74.7,27.9c1.1,0,2,0.9,2,2s-0.9,2-2,2s-2-0.9-2-2 c-0.1-1,0.6-1.9,1.5-2C74.4,27.8,74.6,27.8,74.7,27.9 M74.7,60.3c1-0.1,1.9,0.6,2,1.6c0,0.1,0,0.3,0,0.4c0,1.1-0.9,2-2,2 s-2-0.9-2-2c-0.1-1,0.6-1.9,1.6-2C74.5,60.3,74.6,60.3,74.7,60.3 M82.8,3.5c1-0.1,1.9,0.5,2,1.5c0,0.2,0,0.3,0,0.5 c0,1.1-0.9,2-2,2s-2-0.9-2-2c-0.1-1,0.6-1.9,1.5-2C82.5,3.5,82.6,3.5,82.8,3.5 M82.8,27.9c1.1,0,2,0.9,2,2s-0.9,2-2,2s-2-0.9-2-2 c-0.1-1,0.6-1.9,1.5-2C82.5,27.8,82.6,27.8,82.8,27.9 M82.8,60.3c1-0.1,1.9,0.6,2,1.6c0,0.1,0,0.3,0,0.4c0,1.1-0.9,2-2,2 s-2-0.9-2-2c-0.1-1,0.6-1.9,1.6-2C82.5,60.3,82.7,60.3,82.8,60.3 M90.8,3.5c1-0.1,1.9,0.6,2,1.5c0,0.2,0,0.3,0,0.5 c0,1.1-0.9,2-2,2s-2-0.9-2-2c-0.1-1,0.5-1.9,1.5-2C90.5,3.5,90.7,3.5,90.8,3.5 M90.8,27.9c1.1,0,2,0.9,2,2s-0.9,2-2,2s-2-0.9-2-2 c-0.1-1,0.6-1.9,1.5-2C90.5,27.8,90.7,27.8,90.8,27.9 M90.8,60.3c1-0.1,1.9,0.6,2,1.6c0,0.1,0,0.3,0,0.4c0,1.1-0.9,2-2,2 s-2-0.9-2-2c-0.1-1,0.6-1.9,1.6-2C90.6,60.3,90.7,60.3,90.8,60.3 M98.9,3.5c1-0.1,1.9,0.6,2,1.5c0,0.2,0,0.3,0,0.5 c0,1.1-0.9,2-2,2s-2-0.9-2-2c-0.1-1,0.6-1.9,1.5-2C98.6,3.5,98.8,3.5,98.9,3.5 M98.9,60.3c1-0.1,1.9,0.6,2,1.6c0,0.1,0,0.3,0,0.4 c0,1.1-0.9,2-2,2s-2-0.9-2-2c-0.1-1,0.6-1.9,1.6-2C98.6,60.3,98.8,60.3,98.9,60.3"></path> <path class="st1" d="M111.7,5.9c-0.1-1,0.6-1.9,1.6-2c0.1,0,0.3,0,0.4,0c1-0.1,1.9,0.5,2,1.5c0,0.2,0,0.3,0,0.5 c0.1,1-0.6,1.9-1.6,2c-0.1,0-0.3,0-0.4,0c-1,0.1-1.9-0.6-2-1.6C111.7,6.2,111.7,6.1,111.7,5.9 M113.7,16c-1.1,0-2-0.9-2-2 s0.9-2,2-2c1-0.1,1.9,0.5,2,1.5c0,0.2,0,0.4,0,0.5c0.1,1-0.6,1.9-1.5,2C114,16,113.8,16,113.7,16 M113.7,24.1c-1.1,0-2-0.9-2-2 s0.9-2,2-2s2,0.9,2,2c0.1,1-0.5,1.9-1.5,2C114,24.1,113.9,24.1,113.7,24.1 M113.7,32.1c-1,0.1-1.9-0.6-2-1.5c0-0.2,0-0.3,0-0.5 c-0.1-1,0.6-1.9,1.6-2c0.1,0,0.3,0,0.4,0c1-0.1,1.9,0.6,2,1.6c0,0.1,0,0.3,0,0.4c0.2,1-0.5,1.9-1.4,2 C114.1,32.1,113.9,32.1,113.7,32.1 M111.7,38.2c-0.1-1,0.6-1.9,1.6-2c0.1,0,0.3,0,0.4,0c1-0.1,1.9,0.6,2,1.6c0,0.1,0,0.3,0,0.4 c0.2,1-0.5,1.9-1.4,2c-0.2,0-0.4,0-0.6,0c-1,0.1-1.9-0.6-2-1.5C111.7,38.5,111.7,38.3,111.7,38.2 M113.7,48.2 c-1,0.1-1.9-0.6-2-1.5c0-0.2,0-0.3,0-0.5c-0.1-1,0.6-1.9,1.6-2c0.1,0,0.3,0,0.4,0c1-0.1,1.9,0.6,2,1.6c0,0.1,0,0.3,0,0.4 c0.2,1-0.5,1.9-1.4,2C114.1,48.3,113.9,48.3,113.7,48.2 M113.7,56.3c-1,0.1-1.9-0.6-2-1.5c0-0.2,0-0.3,0-0.5c-0.1-1,0.6-1.9,1.6-2 c0.1,0,0.3,0,0.4,0c1-0.1,1.9,0.6,2,1.6c0,0.1,0,0.3,0,0.4c0.2,1-0.5,1.9-1.4,2C114.1,56.3,113.9,56.3,113.7,56.3 M111.7,62.3 c-0.1-1,0.6-1.9,1.6-2c0.1,0,0.3,0,0.4,0c1-0.1,1.9,0.6,2,1.6c0,0.1,0,0.3,0,0.4c0.2,1-0.5,1.9-1.4,2c-0.2,0-0.4,0-0.6,0 c-1,0.1-1.9-0.6-2-1.5C111.7,62.7,111.7,62.5,111.7,62.3 M119.7,38.1c-0.2-1,0.5-1.9,1.4-2c0.2,0,0.4,0,0.6,0c1-0.1,1.9,0.6,2,1.5 c0,0.2,0,0.3,0,0.5c0.1,1-0.6,1.9-1.6,2c-0.1,0-0.3,0-0.4,0C120.4,40.1,119.7,39.4,119.7,38.1 M119.7,5.6c-0.1-1,0.6-1.9,1.6-2 c0.1,0,0.3,0,0.4,0c1-0.1,1.9,0.5,2,1.5c0,0.2,0,0.3,0,0.5c0.1,1-0.6,1.9-1.6,2c-0.1,0-0.3,0-0.4,0c-1,0.1-1.9-0.6-2-1.6 C119.7,5.8,119.7,5.7,119.7,5.6 M127.8,38.1c-0.1-1,0.5-1.9,1.5-2c0.2,0,0.4,0,0.5,0c1-0.1,1.9,0.6,2,1.5c0,0.2,0,0.3,0,0.5 c0.1,1-0.6,1.9-1.6,2c-0.1,0-0.3,0-0.4,0c-1,0.1-1.9-0.6-2-1.6C127.8,38.3,127.8,38.2,127.8,38.1 M127.8,5.5c0-1.1,0.9-2,2-2 s2,0.9,2,2s-0.9,2-2,2S127.8,6.7,127.8,5.5 M133.1,44.2c-0.1-1,0.6-1.9,1.5-2c0.2,0,0.3,0,0.5,0c1-0.1,1.9,0.6,2,1.6 c0,0.1,0,0.3,0,0.4c0.1,1-0.6,1.9-1.5,2c-0.2,0-0.3,0-0.5,0c-0.9,0.2-1.9-0.5-2-1.4C133,44.6,133,44.4,133.1,44.2 M135.7,37.6 c-0.1-1,0.6-1.9,1.6-2c0.1,0,0.3,0,0.4,0c1-0.1,1.9,0.6,2,1.6c0,0.1,0,0.3,0,0.4c0.1,1-0.6,1.9-1.5,2c-0.2,0-0.3,0-0.5,0 c-0.9,0.2-1.9-0.5-2-1.4C135.7,38,135.7,37.8,135.7,37.6 M135.7,6.4c0-1.1,0.9-2,2-2s2,0.9,2,2s-0.9,2-2,2S135.7,7.5,135.7,6.4 M138.3,50.2c0-1.1,0.9-2,2-2s2,0.9,2,2s-0.9,2-2,2S138.3,51.3,138.3,50.2 M142.4,10.9c-0.1-1,0.5-1.9,1.5-2c0.2,0,0.4,0,0.5,0 c1-0.1,1.9,0.6,2,1.5c0,0.2,0,0.3,0,0.5c0.1,1-0.6,1.9-1.6,2c-0.1,0-0.3,0-0.4,0c-1,0.1-1.9-0.6-2-1.5 C142.3,11.2,142.3,11.1,142.4,10.9 M142.4,33.4c0-1.1,0.9-2,2-2s2,0.9,2,2s-0.9,2-2,2S142.4,34.5,142.4,33.4 M143.6,56.4 c-0.1-1,0.7-1.9,1.7-2c0.1,0,0.2,0,0.3,0c1-0.1,1.9,0.6,2,1.6c0,0.1,0,0.3,0,0.4c0.2,1-0.5,1.9-1.4,2c-0.2,0-0.4,0-0.6,0 c-1,0.1-1.9-0.6-2-1.5C143.6,56.7,143.6,56.5,143.6,56.4 M145.8,18.1c0-1.1,0.9-2,2-2s2,0.9,2,2s-0.9,2-2,2S145.8,19.2,145.8,18.1 M145.8,26.2c0-1.1,0.9-2,2-2s2,0.9,2,2s-0.9,2-2,2S145.8,27.3,145.8,26.2 M148.9,62.4c0-1.1,0.9-2,2-2s2,0.9,2,2s-0.9,2-2,2 S148.9,63.5,148.9,62.4"></path> <path class="st1" d="M159.9,5.9c0-1.1,0.9-2,2-2s2,0.9,2,2s-0.9,2-2,2S159.9,7,159.9,5.9"></path> <path class="st1" d="M164.8,12.4c-0.1-1,0.5-1.9,1.5-2c0.2,0,0.4,0,0.5,0c1.1,0,2,0.9,2,2s-0.9,2-2,2c-1,0.1-1.9-0.5-2-1.5 C164.8,12.8,164.8,12.6,164.8,12.4"></path> <path class="st1" d="M169.8,19c0-1.1,0.9-2,2-2s2,0.9,2,2s-0.9,2-2,2S169.8,20.1,169.8,19"></path> <path class="st1" d="M174.5,25.4c-0.1-1,0.6-1.9,1.6-2c0.1,0,0.3,0,0.4,0c0.9-0.2,1.9,0.5,2,1.4c0,0.2,0,0.4,0,0.6 c0.1,1-0.6,1.9-1.5,2c-0.2,0-0.3,0-0.5,0c-1,0.1-1.9-0.6-2-1.6C174.5,25.7,174.5,25.5,174.5,25.4"></path> <path class="st1" d="M179.5,31.9c0-1.1,0.9-2,2-2s2,0.9,2,2s-0.9,2-2,2S179.5,33,179.5,31.9"></path> <path class="st1" d="M184.8,37.1c0-1.3,0.7-2,2-2c0.9-0.2,1.9,0.5,2,1.4c0,0.2,0,0.4,0,0.6c0.1,1-0.6,1.9-1.5,2 c-0.2,0-0.3,0-0.5,0c-1,0.1-1.9-0.6-2-1.6C184.7,37.3,184.7,37.2,184.8,37.1"></path> <path class="st1" d="M193.3,31.9c0-1.1-0.9-2-2-2s-2,0.9-2,2s0.9,2,2,2c1,0.1,1.9-0.6,2-1.5C193.3,32.2,193.3,32,193.3,31.9"></path> <path class="st1" d="M198.2,25.4c0.1-1-0.6-1.9-1.6-2c-0.1,0-0.3,0-0.4,0c-1-0.1-1.9,0.5-2,1.5c0,0.2,0,0.4,0,0.5 c-0.1,1,0.6,1.9,1.5,2c0.2,0,0.3,0,0.5,0c1,0.1,1.9-0.6,2-1.6C198.2,25.7,198.2,25.5,198.2,25.4"></path> <path class="st1" d="M203,19c0-1.1-0.9-2-2-2s-2,0.9-2,2s0.9,2,2,2c1,0.1,1.9-0.5,2-1.5C203,19.3,203,19.1,203,19"></path> <path class="st1" d="M207.9,12.4c0.1-1-0.5-1.9-1.5-2c-0.2,0-0.4,0-0.5,0c-1.1,0-2,0.9-2,2s0.9,2,2,2c1,0.1,1.9-0.5,2-1.5 C207.9,12.8,207.9,12.6,207.9,12.4"></path> <path class="st1" d="M212.7,5.9c0-1.1-0.9-2-2-2s-2,0.9-2,2s0.9,2,2,2S212.7,7,212.7,5.9"></path> <path class="st1" d="M170.2,62.7c0.1-1-0.6-1.9-1.6-2c-0.1,0-0.3,0-0.4,0c-1-0.1-1.9,0.6-2,1.6c0,0.1,0,0.3,0,0.4 c-0.2,1,0.5,1.9,1.4,2c0.2,0,0.4,0,0.6,0c1,0.1,1.9-0.6,2-1.5C170.2,63,170.2,62.8,170.2,62.7"></path> <path class="st1" d="M175,56.2c0.1-1-0.6-1.9-1.6-2c-0.1,0-0.3,0-0.4,0c-1.1,0-2,0.9-2,2s0.9,2,2,2c1,0.1,1.9-0.6,2-1.5 C175,56.5,175,56.3,175,56.2"></path> <path class="st1" d="M179.8,49.7c0-1.1-0.9-2-2-2s-2,0.9-2,2s0.9,2,2,2S179.8,50.8,179.8,49.7"></path> <path class="st1" d="M184.8,43.1c0.1-1-0.6-1.9-1.5-2c-0.2,0-0.3,0-0.5,0c-1.1,0-2,0.9-2,2s0.9,2,2,2c1,0.1,1.9-0.5,2-1.5 C184.8,43.5,184.8,43.3,184.8,43.1"></path> <path class="st1" d="M236.3,33c0,1.3-0.7,2-2,2c-0.9,0.2-1.9-0.5-2-1.4c0-0.2,0-0.4,0-0.6c-0.1-1,0.6-1.9,1.5-2c0.2,0,0.3,0,0.5,0 c1-0.1,1.9,0.6,2,1.6C236.3,32.8,236.3,32.9,236.3,33 M237.5,25c0.1,1-0.6,1.9-1.6,2c-0.1,0-0.3,0-0.4,0c-1,0.1-1.9-0.6-2-1.5 c0-0.2,0-0.3,0-0.5c-0.2-1,0.5-1.9,1.4-2c0.2,0,0.4,0,0.6,0c1-0.1,1.9,0.6,2,1.5C237.5,24.7,237.5,24.8,237.5,25 M237.5,41 c0-1.3-0.7-2-2-2s-2,0.6-2,2c-0.1,1,0.6,1.9,1.6,2c0.1,0,0.3,0,0.4,0c1,0.1,1.9-0.7,2-1.7C237.5,41.2,237.5,41.1,237.5,41 M240.6,17.5c0.2,1-0.5,1.9-1.4,2c-0.2,0-0.4,0-0.6,0c-1,0.1-1.9-0.6-2-1.5c0-0.2,0-0.3,0-0.5c-0.1-1,0.6-1.9,1.6-2 c0.1,0,0.3,0,0.4,0c1-0.1,1.9,0.6,2,1.5C240.6,17.2,240.6,17.4,240.6,17.5 M240.6,48.4c0.1-1-0.6-1.9-1.5-2c-0.2,0-0.3,0-0.5,0 c-1-0.1-1.9,0.6-2,1.6c0,0.1,0,0.3,0,0.4c-0.1,1,0.6,1.9,1.6,2c0.1,0,0.3,0,0.4,0c0.9,0.2,1.9-0.5,2-1.4 C240.6,48.7,240.6,48.6,240.6,48.4 M245.7,11.3c0.1,1-0.6,1.9-1.6,2c-0.1,0-0.3,0-0.4,0c-1,0.1-1.9-0.6-2-1.5c0-0.2,0-0.3,0-0.5 c-0.2-0.9,0.5-1.9,1.4-2c0.2,0,0.4,0,0.6,0C245.1,9.3,245.7,9.9,245.7,11.3 M245.7,54.6c0.1-1-0.6-1.9-1.6-2c-0.1,0-0.3,0-0.4,0 c-1.1,0-2,0.9-2,2s0.9,2,2,2c1,0.1,1.9-0.6,2-1.5C245.8,54.9,245.8,54.8,245.7,54.6 M252.3,6.7c0.2,0.9-0.5,1.9-1.4,2 c-0.2,0-0.4,0-0.6,0c-1,0.1-1.9-0.6-2-1.5c0-0.2,0-0.3,0-0.5c-0.1-1,0.6-1.9,1.6-2c0.1,0,0.3,0,0.4,0c1-0.1,1.9,0.6,2,1.5 C252.3,6.4,252.3,6.6,252.3,6.7 M252.3,59.4c0.2-1-0.5-1.9-1.4-2c-0.2,0-0.4,0-0.6,0c-1.4,0-2,0.6-2,2c-0.1,1,0.6,1.9,1.6,2 c0.1,0,0.3,0,0.4,0c1,0.1,1.9-0.6,2-1.5C252.3,59.7,252.3,59.5,252.3,59.4 M259.9,4c0.1,1-0.6,1.9-1.5,2c-0.2,0-0.3,0-0.5,0 c-1,0.1-1.9-0.6-2-1.6c0-0.1,0-0.3,0-0.4c-0.1-1,0.6-1.9,1.6-2c0.1,0,0.3,0,0.4,0c1-0.1,1.9,0.6,2,1.5 C259.9,3.7,259.9,3.8,259.9,4 M259.9,62.2c0.1-1-0.6-1.9-1.6-2c-0.1,0-0.3,0-0.4,0c-1-0.1-1.9,0.6-2,1.6c0,0.1,0,0.3,0,0.4 c-0.1,1,0.6,1.9,1.5,2c0.2,0,0.3,0,0.5,0c1,0.2,1.9-0.5,2-1.4C259.9,62.5,259.9,62.3,259.9,62.2 M263.3,33c-0.2,0.9,0.5,1.8,1.4,2 c0.2,0,0.4,0,0.6,0c1,0.1,1.9-0.6,2-1.5c0-0.2,0-0.3,0-0.5c0.1-1-0.6-1.9-1.6-2c-0.1,0-0.3,0-0.4,0C263.9,31,263.3,31.7,263.3,33 M264,3.3c0,1.1,0.9,2,2,2s2-0.9,2-2s-0.9-2-2-2S264,2.2,264,3.3 M268,62.7c0-1.1-0.9-2-2-2s-2,0.9-2,2s0.9,2,2,2 S268,63.8,268,62.7 M271.4,33c-0.2,0.9,0.5,1.8,1.4,2c0.2,0,0.4,0,0.6,0c1.4,0,2-0.6,2-2c0.1-1-0.6-1.9-1.6-2c-0.1,0-0.3,0-0.4,0 C272,31,271.4,31.7,271.4,33 M272.1,4c0,1.1,0.9,2,2,2s2-0.9,2-2s-0.9-2-2-2S272.1,2.9,272.1,4 M272.1,62.1c0-1.1,0.9-2,2-2 s2,0.9,2,2s-0.9,2-2,2S272.1,63.3,272.1,62.1 M279.5,33c-0.2,1,0.5,1.9,1.4,2c0.2,0,0.4,0,0.6,0c1,0.1,1.9-0.6,2-1.5 c0-0.2,0-0.3,0-0.5c0.1-1-0.6-1.9-1.6-2c-0.1,0-0.3,0-0.4,0c-1-0.1-1.9,0.6-2,1.5C279.5,32.7,279.5,32.9,279.5,33 M279.6,6.7 c-0.2,0.9,0.5,1.9,1.4,2c0.2,0,0.4,0,0.6,0c1,0.1,1.9-0.6,2-1.6c0-0.1,0-0.3,0-0.4c0.1-1-0.7-1.9-1.7-2c-0.1,0-0.2,0-0.3,0 c-1-0.1-1.9,0.6-2,1.5C279.6,6.4,279.6,6.5,279.6,6.7 M279.6,59.4c-0.2-1,0.5-1.9,1.4-2c0.2,0,0.4,0,0.6,0c1-0.1,1.9,0.6,2,1.6 c0,0.1,0,0.3,0,0.4c0.1,1-0.7,1.9-1.7,2c-0.1,0-0.2,0-0.3,0c-1,0.1-1.9-0.6-2-1.5C279.6,59.7,279.6,59.5,279.6,59.4 M286.2,11.3 c-0.1,1,0.6,1.9,1.6,2c0.1,0,0.3,0,0.4,0c1,0.1,1.9-0.6,2-1.5c0-0.2,0-0.3,0-0.5c0.2-0.9-0.5-1.9-1.4-2c-0.2,0-0.4,0-0.6,0 c-1-0.1-1.9,0.6-2,1.5C286.2,11,286.2,11.2,286.2,11.3 M286.2,54.7c-0.1-1,0.6-1.9,1.6-2c0.1,0,0.3,0,0.4,0c1.1,0,2,0.9,2,2 s-0.9,2-2,2c-1,0.1-1.9-0.6-2-1.6C286.2,55,286.2,54.8,286.2,54.7 M287.6,33c-0.2,1,0.5,1.9,1.4,2c0.2,0,0.4,0,0.6,0 c1,0.1,1.9-0.6,2-1.5c0-0.2,0-0.3,0-0.5c0.1-1-0.6-1.9-1.6-2c-0.1,0-0.3,0-0.4,0c-1-0.1-1.9,0.6-2,1.5 C287.5,32.7,287.5,32.9,287.6,33 M291.4,48.4c-0.1-1,0.6-1.9,1.5-2c0.2,0,0.3,0,0.5,0c1-0.1,1.9,0.6,2,1.6c0,0.1,0,0.3,0,0.4 c0.1,1-0.6,1.9-1.6,2c-0.1,0-0.3,0-0.4,0c-1,0.2-1.9-0.5-2-1.4C291.3,48.8,291.3,48.6,291.4,48.4 M294.6,41.1c0-1.3,0.7-2,2-2 c0.9-0.2,1.8,0.5,2,1.4c0,0.2,0,0.4,0,0.6c0.1,1-0.6,1.9-1.6,2c-0.1,0-0.3,0-0.4,0c-1,0.1-1.9-0.7-2-1.7 C294.5,41.3,294.5,41.2,294.6,41.1 M295.7,33c0,1.1,0.9,2,2,2s2-0.9,2-2s-0.9-2-2-2S295.7,31.9,295.7,33"></path> <path class="st1" d="M300.3,61.5c0-1.1,0.9-2,2-2s2,0.9,2,2s-0.9,2-2,2S300.3,62.6,300.3,61.5 M304.1,54.3c-0.1-1,0.6-1.9,1.6-2 c0.1,0,0.3,0,0.4,0c1-0.1,1.9,0.7,2,1.7c0,0.1,0,0.2,0,0.3c0.1,1-0.6,1.9-1.5,2c-0.2,0-0.3,0-0.5,0c-1,0.2-1.9-0.5-2-1.4 C304.1,54.7,304.1,54.5,304.1,54.3 M308,47.1c0-1.1,0.9-2,2-2s2,0.9,2,2s-0.9,2-2,2S308,48.2,308,47.1 M311.8,40 c-0.1-1,0.7-1.9,1.7-2c0.1,0,0.2,0,0.3,0c1-0.1,1.9,0.6,2,1.6c0,0.1,0,0.3,0,0.4c0.2,1-0.5,1.9-1.4,2c-0.2,0-0.4,0-0.6,0 C312.4,42,311.8,41.4,311.8,40 M315.6,32.8c-0.1-1,0.6-1.9,1.6-2c0.1,0,0.3,0,0.4,0c1-0.1,1.9,0.5,2,1.5c0,0.2,0,0.3,0,0.5 c0.1,1-0.6,1.9-1.6,2c-0.1,0-0.3,0-0.4,0c-1,0.1-1.9-0.6-2-1.6C315.6,33,315.6,32.9,315.6,32.8 M323.5,39.9c0.1-1-0.6-1.9-1.6-2 c-0.1,0-0.3,0-0.4,0c-0.9-0.2-1.8,0.5-2,1.4c0,0.2,0,0.4,0,0.6c-0.2,1,0.5,1.9,1.4,2c0.2,0,0.4,0,0.6,0c1,0.1,1.9-0.7,2-1.7 C323.5,40.1,323.5,40,323.5,39.9 M319.4,25.6c0-1.1,0.9-2,2-2s2,0.9,2,2s-0.9,2-2,2S319.4,26.7,319.4,25.6 M323.2,18.5 c-0.1-1,0.5-1.9,1.5-2c0.2,0,0.4,0,0.5,0c1-0.1,1.9,0.6,2,1.6c0,0.1,0,0.3,0,0.4c0.1,1-0.6,1.9-1.6,2c-0.1,0-0.3,0-0.4,0 c-1,0.1-1.9-0.6-2-1.5C323.2,18.8,323.2,18.6,323.2,18.5 M327,11.3c0-1.1,0.9-2,2-2s2,0.9,2,2s-0.9,2-2,2S327,12.5,327,11.3 M331,39.9c0.2-0.9-0.5-1.8-1.4-2c-0.2,0-0.4,0-0.6,0c-1.1,0-2,0.9-2,2s0.9,2,2,2c1,0.1,1.9-0.6,2-1.6C331,40.2,331,40,331,39.9 M334.9,4.2c0-1.1-0.9-2-2-2s-2,0.9-2,2c-0.1,1,0.5,1.9,1.5,2c0.2,0,0.4,0,0.6,0C334.3,6.2,335,5.5,334.9,4.2 M338.8,11.3 c0-1.4-0.7-2-2-2c-1-0.2-1.9,0.5-2,1.4c0,0.2,0,0.4,0,0.6c-0.1,1,0.7,1.9,1.8,2c0.1,0,0.2,0,0.2,0c1,0.1,1.9-0.5,2-1.5 C338.8,11.7,338.8,11.5,338.8,11.3 M338.8,39.9c0.2-0.9-0.5-1.8-1.4-2c-0.2,0-0.4,0-0.6,0c-1-0.1-1.9,0.6-2,1.6c0,0.1,0,0.3,0,0.4 c-0.1,1,0.7,1.9,1.7,2c0.1,0,0.2,0,0.3,0c1,0.1,1.9-0.6,2-1.5C338.8,40.3,338.8,40.1,338.8,39.9 M342.6,18.5 c0.2-0.9-0.4-1.8-1.3-2c-0.2,0-0.5,0-0.7,0c-1-0.1-1.9,0.6-2,1.6c0,0.1,0,0.3,0,0.4c0,1.1,0.9,2,2,2c0,0,0.1,0,0.1,0 c1,0.1,1.9-0.6,2-1.5c0-0.2,0-0.3,0-0.5 M346.5,25.7c0.2-1-0.5-1.9-1.4-2c-0.2,0-0.4,0-0.6,0c-1.1,0-2,0.9-2,2s0.9,2,2,2 c0.9,0.2,1.8-0.5,2-1.4C346.6,26.1,346.6,25.9,346.5,25.7 M346.5,40c0.2-0.9-0.4-1.8-1.3-2c-0.2,0-0.5,0-0.7,0 c-1-0.1-1.9,0.6-2,1.6c0,0.1,0,0.3,0,0.4c-0.1,1,0.7,1.9,1.7,2c0.1,0,0.2,0,0.3,0c1,0.1,1.9-0.5,2-1.5 C346.6,40.3,346.6,40.1,346.5,40 M350.4,32.8c0.1-1-0.6-1.9-1.5-2c-0.2,0-0.3,0-0.5,0c-1-0.1-1.9,0.7-2,1.7c0,0.1,0,0.2,0,0.3 c0,1.3,0.8,2,2,2S350.4,34.2,350.4,32.8 M354.2,40c0.2-1-0.5-1.9-1.4-2c-0.2,0-0.4,0-0.6,0c-1-0.1-1.9,0.6-2,1.6 c0,0.1,0,0.3,0,0.4c-0.2,1,0.5,1.9,1.4,2c0.2,0,0.4,0,0.6,0c1,0.1,1.9-0.7,2-1.8C354.2,40.2,354.2,40.1,354.2,40 M358,47.2 c0-1.3-0.7-2-2-2c-1-0.1-1.9,0.6-2,1.6c0,0.1,0,0.3,0,0.4c0,1.1,0.9,2,2,2S358,48.4,358,47.2 M361.8,54.4c0.1-1-0.7-1.9-1.8-2 c-0.1,0-0.2,0-0.2,0c-1-0.1-1.9,0.6-2,1.6c0,0.2,0,0.4,0,0.5c0,1.1,0.9,2,2,2s2-0.9,2-2 M365.6,61.7c0.1-1-0.5-1.9-1.5-2 c-0.2,0-0.4,0-0.5,0c-0.9-0.2-1.8,0.4-2,1.3c0,0.2,0,0.5,0,0.7c-0.1,1,0.6,1.9,1.6,2c0.1,0,0.3,0,0.4,0c1,0.1,1.9-0.7,2-1.7 C365.6,61.8,365.6,61.7,365.6,61.7"></path> <path class="st1" d="M374.2,4.7c0-1.3,0.7-2,2-2c1-0.2,1.9,0.5,2,1.4c0,0.2,0,0.4,0,0.6c0.1,1-0.6,1.9-1.5,2c-0.2,0-0.3,0-0.5,0 c-1,0.1-1.9-0.6-2-1.6C374.2,4.9,374.2,4.8,374.2,4.7 M376.2,14.7c-1,0.1-1.9-0.6-2-1.6c0-0.1,0-0.3,0-0.4c-0.1-1,0.6-1.9,1.5-2 c0.2,0,0.3,0,0.5,0c1-0.1,1.9,0.5,2,1.5c0,0.2,0,0.4,0,0.5c0.1,1-0.6,1.9-1.5,2C376.5,14.7,376.4,14.7,376.2,14.7 M376.2,22.8 c-1.1,0-2-0.9-2-2s0.9-2,2-2s2,0.9,2,2c0.1,1-0.5,1.9-1.5,2C376.6,22.8,376.4,22.8,376.2,22.8 M376.2,30.8c-1.1,0-2-0.9-2-2 s0.9-2,2-2s2,0.9,2,2c0.1,1-0.5,1.9-1.5,2C376.6,30.8,376.4,30.8,376.2,30.8 M374.2,36.8c-0.1-1,0.6-1.9,1.6-2c0.1,0,0.3,0,0.4,0 c1-0.1,1.9,0.6,2,1.5c0,0.2,0,0.3,0,0.5c0.1,1-0.5,1.9-1.5,2c-0.2,0-0.4,0-0.5,0c-1,0.1-1.9-0.6-2-1.5 C374.2,37.2,374.2,37,374.2,36.8 M376.2,46.9c-1.4,0-2-0.6-2-2c-0.1-1,0.6-1.9,1.6-2c0.1,0,0.3,0,0.4,0c1-0.1,1.9,0.6,2,1.5 c0,0.2,0,0.3,0,0.5c0.2,1-0.5,1.9-1.4,2C376.6,47,376.4,47,376.2,46.9 M376.2,55c-1.4,0-2-0.6-2-2c-0.1-1,0.6-1.9,1.6-2 c0.1,0,0.3,0,0.4,0c1-0.1,1.9,0.6,2,1.6c0,0.1,0,0.3,0,0.4c0.2,0.9-0.5,1.8-1.4,2C376.6,55,376.4,55,376.2,55 M374.2,61 c-0.1-1,0.6-1.9,1.6-2c0.1,0,0.3,0,0.4,0c1-0.1,1.9,0.6,2,1.5c0,0.2,0,0.3,0,0.5c0.2,1-0.5,1.9-1.4,2c-0.2,0-0.4,0-0.6,0 C374.8,63,374.2,62.4,374.2,61 M382.2,36.7c0-1.1,0.9-2,2-2s2,0.9,2,2s-0.9,2-2,2S382.2,37.8,382.2,36.7 M382.2,4.2 c0-1.1,0.9-2,2-2s2,0.9,2,2s-0.9,2-2,2S382.2,5.3,382.2,4.2 M390.3,36.7c0-1.1,0.9-2,2-2s2,0.9,2,2s-0.9,2-2,2 S390.3,37.8,390.3,36.7 M390.3,4.2c0-1.1,0.9-2,2-2s2,0.9,2,2s-0.9,2-2,2S390.3,5.3,390.3,4.2 M395.6,42.8c0-1.1,0.9-2,2-2 s2,0.9,2,2c0,1.4-0.7,2-2,2c-1,0.2-1.9-0.5-2-1.4C395.5,43.2,395.5,43,395.6,42.8 M398.3,36.3c-0.1-1,0.6-1.9,1.5-2 c0.2,0,0.3,0,0.5,0c1-0.1,1.9,0.6,2,1.6c0,0.1,0,0.3,0,0.4c0.1,1-0.5,1.9-1.5,2c-0.2,0-0.4,0-0.5,0c-1,0.2-1.9-0.5-2-1.4 C398.2,36.7,398.2,36.5,398.3,36.3 M398.3,5.1c-0.1-1,0.6-1.9,1.6-2c0.1,0,0.3,0,0.4,0c1-0.1,1.9,0.5,2,1.5c0,0.2,0,0.3,0,0.5 c0.2,0.9-0.5,1.9-1.4,2c-0.2,0-0.4,0-0.6,0c-1,0.1-1.9-0.6-2-1.6C398.2,5.3,398.2,5.2,398.3,5.1 M400.9,48.9c-0.2-1,0.5-1.9,1.4-2 c0.2,0,0.4,0,0.6,0c1-0.1,1.9,0.6,2,1.5c0,0.2,0,0.3,0,0.5c0.1,1-0.7,1.9-1.7,2c-0.1,0-0.2,0-0.3,0c-1,0.1-1.9-0.6-2-1.6 C400.9,49.2,400.9,49,400.9,48.9 M404.9,9.6c-0.2-0.9,0.5-1.9,1.4-2c0.2,0,0.4,0,0.6,0c1-0.1,1.9,0.6,2,1.5c0,0.2,0,0.3,0,0.5 c0.1,1-0.6,1.9-1.6,2c-0.1,0-0.3,0-0.4,0C405.6,11.6,404.9,10.9,404.9,9.6 M404.9,32c0-1.1,0.9-2,2-2s2,0.9,2,2s-0.9,2-2,2 S404.9,33.2,404.9,32 M406.1,55c0-1.1,0.9-2,2-2s2,0.9,2,2s-0.9,2-2,2S406.1,56.1,406.1,55 M408.3,16.8c-0.2-0.9,0.5-1.9,1.4-2 c0.2,0,0.4,0,0.6,0c1-0.1,1.9,0.6,2,1.6c0,0.1,0,0.3,0,0.4c0.1,1-0.6,1.9-1.6,2c-0.1,0-0.3,0-0.4,0c-1,0.1-1.9-0.6-2-1.5 C408.3,17.1,408.3,16.9,408.3,16.8 M408.3,24.8c-0.1-1,0.6-1.9,1.5-2c0.2,0,0.3,0,0.5,0c1-0.1,1.9,0.5,2,1.5c0,0.2,0,0.4,0,0.5 c0.1,1-0.6,1.9-1.5,2c-0.2,0-0.3,0-0.5,0c-1,0.1-1.9-0.6-2-1.6C408.3,25.1,408.3,24.9,408.3,24.8 M411.4,61.1 c-0.1-1,0.6-1.9,1.6-2c0.1,0,0.3,0,0.4,0c1-0.1,1.9,0.6,2,1.6c0,0.1,0,0.3,0,0.4c0.2,1-0.5,1.9-1.4,2c-0.2,0-0.4,0-0.6,0 c-1,0.1-1.9-0.6-2-1.5C411.4,61.4,411.4,61.2,411.4,61.1"></path> <path class="st1" d="M423.9,33c0.2,1-0.5,1.9-1.4,2c-0.2,0-0.4,0-0.6,0c-1,0.1-1.9-0.6-2-1.5c0-0.2,0-0.3,0-0.5 c-0.1-1,0.6-1.9,1.6-2c0.1,0,0.3,0,0.4,0c1-0.1,1.9,0.6,2,1.6C423.9,32.8,423.9,32.9,423.9,33 M425,25c0.1,1-0.6,1.9-1.5,2 c-0.2,0-0.3,0-0.5,0c-1,0.1-1.9-0.6-2-1.6c0-0.1,0-0.3,0-0.4c-0.1-1,0.5-1.9,1.5-2c0.2,0,0.4,0,0.5,0c1-0.2,1.9,0.5,2,1.4 C425.1,24.6,425.1,24.8,425,25 M425,41c0.2-1-0.5-1.9-1.4-2c-0.2,0-0.4,0-0.6,0c-1-0.1-1.9,0.5-2,1.5c0,0.2,0,0.3,0,0.5 c-0.1,1,0.6,1.9,1.6,2c0.1,0,0.3,0,0.4,0c1,0.1,1.9-0.6,2-1.6C425,41.2,425,41.1,425,41 M428.2,17.5c0,1.1-0.9,2-2,2s-2-0.9-2-2 s0.9-2,2-2S428.2,16.4,428.2,17.5 M428.2,48.4c0-1.1-0.9-2-2-2s-2,0.9-2,2s0.9,2,2,2S428.2,49.5,428.2,48.4 M433.3,11.3 c0.1,1-0.6,1.9-1.5,2c-0.2,0-0.3,0-0.5,0c-1,0.1-1.9-0.6-2-1.6c0-0.1,0-0.3,0-0.4c-0.1-1,0.5-1.9,1.5-2c0.2,0,0.4,0,0.5,0 c1-0.2,1.9,0.5,2,1.4C433.3,10.9,433.3,11.1,433.3,11.3 M433.3,54.6c0.1-1-0.5-1.9-1.5-2c-0.2,0-0.4,0-0.5,0c-1.1,0-2,0.9-2,2 s0.9,2,2,2c1,0.1,1.9-0.5,2-1.5C433.3,54.9,433.3,54.8,433.3,54.6 M440,6.6c0,1.1-0.9,2-2,2s-2-0.9-2-2s0.9-2,2-2S440,5.5,440,6.6 M440,59.3c0-1.1-0.9-2-2-2s-2,0.9-2,2s0.9,2,2,2S440,60.4,440,59.3 M447.6,4c0.1,1-0.6,1.9-1.6,2c-0.1,0-0.3,0-0.4,0 c-1,0.1-1.9-0.6-2-1.5c0-0.2,0-0.3,0-0.5c-0.1-1,0.6-1.9,1.5-2c0.2,0,0.3,0,0.5,0c1-0.1,1.9,0.6,2,1.6 C447.6,3.7,447.6,3.9,447.6,4 M447.6,62.2c0.1-1-0.6-1.9-1.6-2c-0.1,0-0.3,0-0.4,0c-1-0.1-1.9,0.6-2,1.6c0,0.1,0,0.3,0,0.4 c-0.2,1,0.5,1.9,1.4,2c0.2,0,0.4,0,0.6,0c1,0.1,1.9-0.6,2-1.5C447.6,62.5,447.6,62.3,447.6,62.2 M451.6,3.4c-0.1,1,0.5,1.9,1.5,2 c0.2,0,0.4,0,0.5,0c1,0.1,1.9-0.6,2-1.5c0-0.2,0-0.3,0-0.5c0.1-1-0.6-1.9-1.6-2c-0.1,0-0.3,0-0.4,0c-1-0.1-1.9,0.6-2,1.5 C451.6,3,451.6,3.2,451.6,3.4 M455.6,62.7c0.1-1-0.6-1.9-1.6-2c-0.1,0-0.3,0-0.4,0c-1-0.1-1.9,0.6-2,1.6c0,0.1,0,0.3,0,0.4 c-0.2,1,0.5,1.9,1.4,2c0.2,0,0.4,0,0.6,0C455,64.8,455.6,64.1,455.6,62.7 M459.7,4c0,1.1,0.9,2,2,2s2-0.9,2-2s-0.9-2-2-2 S459.7,2.9,459.7,4 M459.7,62.2c0-1.1,0.9-2,2-2s2,0.9,2,2s-0.9,2-2,2S459.7,63.3,459.7,62.2 M467.2,6.7c0,1.1,0.9,2,2,2 s2-0.9,2-2s-0.9-2-2-2S467.2,5.6,467.2,6.7 M467.2,59.4c0-1.1,0.9-2,2-2s2,0.9,2,2s-0.9,2-2,2S467.2,60.5,467.2,59.4"></path> <path class="st1" d="M484.4,2.7c1-0.2,1.9,0.5,2,1.4c0,0.2,0,0.4,0,0.6c0.1,1-0.6,1.9-1.6,2c-0.1,0-0.3,0-0.4,0 c-1,0.1-1.9-0.6-2-1.6c0-0.1,0-0.3,0-0.4C482.3,3.3,483,2.7,484.4,2.7 M486.4,12.7c0.1,1-0.6,1.9-1.5,2c-0.2,0-0.3,0-0.5,0 c-1,0.1-1.9-0.6-2-1.6c0-0.1,0-0.3,0-0.4c0-1.4,0.7-2,2-2c1-0.2,1.9,0.5,2,1.4C486.4,12.3,486.4,12.5,486.4,12.7 M486.4,20.8 c0.1,1-0.5,1.9-1.5,2c-0.2,0-0.4,0-0.5,0c-1.1,0-2-0.9-2-2s0.9-2,2-2S486.4,19.7,486.4,20.8 M484.3,26.8c1-0.1,1.9,0.6,2,1.5 c0,0.2,0,0.3,0,0.5c0.1,1-0.5,1.9-1.5,2c-0.2,0-0.4,0-0.5,0c-1,0.1-1.9-0.6-2-1.5c0-0.2,0-0.3,0-0.5c-0.1-1,0.6-1.9,1.6-2 C484.1,26.8,484.2,26.8,484.3,26.8 M486.4,36.9c0.1,1-0.5,1.9-1.5,2c-0.2,0-0.4,0-0.5,0c-1,0.1-1.9-0.6-2-1.5c0-0.2,0-0.3,0-0.5 c-0.1-1,0.6-1.9,1.6-2c0.1,0,0.3,0,0.4,0c1-0.1,1.9,0.6,2,1.6C486.4,36.6,486.4,36.8,486.4,36.9 M486.4,44.9c0.2,1-0.5,1.9-1.4,2 c-0.2,0-0.4,0-0.6,0c-1.4,0-2-0.6-2-2c-0.1-1,0.6-1.9,1.6-2c0.1,0,0.3,0,0.4,0c1-0.1,1.9,0.6,2,1.6 C486.4,44.7,486.4,44.8,486.4,44.9 M486.4,53c0,1.3-0.7,2-2,2s-2-0.6-2-2c-0.1-1,0.6-1.9,1.6-2c0.1,0,0.3,0,0.4,0 c1-0.1,1.9,0.6,2,1.6C486.4,52.7,486.4,52.9,486.4,53 M484.4,59.1c1-0.1,1.9,0.6,2,1.6c0,0.1,0,0.3,0,0.4c0.1,1-0.5,1.9-1.5,2 c-0.2,0-0.4,0-0.5,0c-1,0.1-1.9-0.6-2-1.5c0-0.2,0-0.3,0-0.5c-0.1-1,0.6-1.9,1.6-2C484.1,59.1,484.2,59.1,484.4,59.1"></path> <path class="st1" d="M495.3,61.5c0-1.1,0.9-2,2-2s2,0.9,2,2c0,1.1-0.9,2-2,2S495.3,62.6,495.3,61.5 M499.1,54.3c0-1.1,0.9-2,2-2 s2,0.9,2,2s-0.9,2-2,2S499.1,55.4,499.1,54.3 M502.9,47.2c0-1.1,0.9-2,2-2s2,0.9,2,2s-0.9,2-2,2S502.9,48.3,502.9,47.2 M506.7,40 c0-1.1,0.9-2,2-2s2,0.9,2,2s-0.9,2-2,2S506.7,41.1,506.7,40 M510.6,32.8c0-1.1,0.9-2,2-2c1.1,0,2,0.9,2,2s-0.9,2-2,2 S510.6,33.9,510.6,32.8 M518.4,39.9c0.1-1-0.6-1.9-1.5-2c-0.2,0-0.3,0-0.5,0c-1-0.2-1.9,0.5-2,1.4c0,0.2,0,0.4,0,0.6 c-0.1,1,0.5,1.9,1.5,2c0.2,0,0.3,0,0.5,0c1,0.1,1.9-0.7,2-1.7C518.4,40.1,518.4,40,518.4,39.9 M514.4,25.6c0-1.1,0.9-2,2-2 s2,0.9,2,2s-0.9,2-2,2S514.4,26.7,514.4,25.6 M518.1,18.5c0-1.1,0.9-2,2-2s2,0.9,2,2s-0.9,2-2,2c-1,0.1-1.9-0.6-2-1.6 C518.1,18.8,518.1,18.6,518.1,18.5 M521.8,11.3c0-1.1,0.9-2,2-2s2,0.9,2,2s-0.9,2-2,2S521.8,12.5,521.8,11.3 M525.9,39.9 c0.2-0.9-0.5-1.8-1.4-2c-0.2,0-0.4,0-0.6,0c-1-0.1-1.9,0.6-2,1.6c0,0.1,0,0.3,0,0.4c-0.1,1,0.6,1.9,1.7,2c0.2,0,0.3,0,0.5,0 c1,0.1,1.9-0.6,2-1.5C526,40.2,526,40,525.9,39.9 M529.8,4.2c0.1-1-0.6-1.9-1.6-2c-0.1,0-0.3,0-0.4,0c-1-0.1-1.9,0.7-2,1.7 c0,0.1,0,0.2,0,0.3c-0.1,1,0.6,1.9,1.5,2c0.2,0,0.3,0,0.5,0c0.9,0.2,1.8-0.4,2-1.3C529.8,4.6,529.8,4.4,529.8,4.2 M533.6,11.3 c0-1.4-0.7-2-2-2c-1-0.1-1.9,0.5-2,1.5c0,0.2,0,0.4,0,0.5c-0.1,1,0.7,1.9,1.8,2c0.1,0,0.2,0,0.4,0c1,0.1,1.9-0.5,2-1.5 C533.7,11.7,533.7,11.5,533.6,11.3 M533.7,39.9c0.2-0.9-0.4-1.8-1.3-2c-0.2,0-0.5,0-0.7,0c-1-0.1-1.9,0.6-2,1.6c0,0.1,0,0.3,0,0.4 c-0.1,1,0.6,1.9,1.7,2c0.2,0,0.3,0,0.5,0c1,0.1,1.9-0.6,2-1.5C533.8,40.2,533.8,40.1,533.7,39.9 M537.6,18.5 c0.2-0.9-0.5-1.8-1.4-2c-0.2,0-0.4,0-0.6,0c-1-0.1-1.9,0.5-2,1.5c0,0.2,0,0.4,0,0.5c-0.1,1,0.7,1.9,1.7,2c0.1,0,0.2,0,0.3,0 c1,0.1,1.9-0.6,2-1.6C537.6,18.7,537.6,18.6,537.6,18.5 M541.4,25.6c0.1-1-0.5-1.9-1.5-2c-0.2,0-0.3,0-0.5,0c-1.1,0-2,0.9-2,2 s0.9,2,2,2c1,0.2,1.9-0.5,2-1.4C541.4,26,541.4,25.8,541.4,25.6 M541.4,39.9c0.2-0.9-0.5-1.8-1.4-2c-0.2,0-0.4,0-0.6,0 c-1-0.1-1.9,0.6-2,1.6c0,0.1,0,0.3,0,0.4c-0.1,1,0.7,1.9,1.7,2c0.1,0,0.2,0,0.3,0c1,0.1,1.9-0.6,2-1.5 C541.4,40.2,541.4,40.1,541.4,39.9 M545.2,32.8c0.1-1-0.6-1.9-1.5-2c-0.2,0-0.3,0-0.5,0c-1-0.1-1.9,0.7-2,1.7c0,0.1,0,0.2,0,0.3 c0,1.3,0.7,2,2,2c1,0.2,1.9-0.5,2-1.4C545.3,33.2,545.3,33,545.2,32.8 M549,39.9c0.2-0.9-0.4-1.8-1.3-2c-0.2,0-0.5,0-0.7,0 c-1-0.1-1.9,0.6-2,1.6c0,0.1,0,0.3,0,0.4c-0.1,1,0.5,1.9,1.5,2c0.2,0,0.3,0,0.5,0c1,0.1,1.9-0.7,2-1.7C549,40.1,549,40,549,39.9 M552.9,47.2c0.1-1-0.7-1.9-1.7-2c-0.1,0-0.2,0-0.3,0c-1-0.1-1.9,0.6-2,1.6c0,0.1,0,0.3,0,0.4c0,1.1,0.9,2,2,2 S552.9,48.3,552.9,47.2 M556.7,54.3c0-1.1-0.9-2-2-2c0,0-0.1,0-0.1,0c-1-0.1-1.9,0.6-2,1.6c0,0.2,0,0.4,0,0.5c0,1.3,0.7,2,2,2 s2-0.6,2-2 M560.4,61.6c0.2-1-0.5-1.9-1.4-2c-0.2,0-0.4,0-0.6,0c-0.9-0.2-1.8,0.4-2,1.3c0,0.2,0,0.5,0,0.7c-0.1,1,0.6,1.9,1.6,2 c0.1,0,0.3,0,0.4,0c1,0.1,1.9-0.7,2-1.7C560.4,61.8,560.4,61.7,560.4,61.6"></path> </g> </g> </svg> 